<?xml version="1.0" encoding="UTF-8"?>
  <svg xmlns="http://www.w3.org/2000/svg" version="1.1" width="337" height="105">
    <path d="M0 0 C111.21 0 222.42 0 337 0 C337 34.65 337 69.3 337 105 C225.79 105 114.58 105 0 105 C0 70.35 0 35.7 0 0 Z " fill="#101828" transform="translate(0,0)"/>
    <path d="M0 0 C1.67542976 0.28604898 3.34385343 0.61781233 5 1 C6.14259259 5.57037037 6.14259259 5.57037037 5.3984375 7.8125 C4.30012234 13.84246556 9.41057197 21.52955541 12.75 26.375 C19.63958303 34.84637505 30.30582016 39.68371492 41 40.875 C52.08828601 41.42658566 62.13674631 38.26006122 71.0234375 31.44921875 C74.01104632 28.6292075 75.77367205 25.90195256 77 22 C78 21 78 21 80.5625 20.9375 C81.7690625 20.9684375 81.7690625 20.9684375 83 21 C83.6875 23.3125 83.6875 23.3125 84 26 C82.53820391 28.11148324 80.96374308 29.02114987 78.75 30.3125 C76.43561806 31.73268892 74.83079873 33.04553276 72.875 34.875 C64.20507701 42.33818853 53.26106324 45.02453985 42 45 C28.98904943 43.70954785 18.87522585 38.54505422 10 29 C5.68782916 23.23127368 3.06866833 17.07167766 0.859375 10.25 C0.11564894 7.84347195 0.11564894 7.84347195 -2 6 C-1.44444444 1.44444444 -1.44444444 1.44444444 0 0 Z " fill="#5573EA" transform="translate(10,53)"/>
    <path d="M0 0 C2.17367223 1.77510414 4.23352025 3.61694512 6.27734375 5.5390625 C8.04827823 7.20444987 8.04827823 7.20444987 10.9375 8.125 C11.618125 8.41375 12.29875 8.7025 13 9 C13.8125 11.625 13.8125 11.625 14 14 C12.35 14.66 10.7 15.32 9 16 C8.5875 15.278125 8.175 14.55625 7.75 13.8125 C2.61050134 5.55259144 -4.86919536 0.25871558 -14.26171875 -2.52734375 C-25.7727676 -4.5142723 -37.32385614 -3.90811869 -47.33984375 2.49609375 C-49.96278491 4.39808182 -52.36478208 6.32897323 -54.59375 8.68359375 C-56 10 -56 10 -58 10 C-58.37125 10.9590625 -58.37125 10.9590625 -58.75 11.9375 C-59.46344483 13.68543982 -60.20423396 15.42405829 -61.0234375 17.125 C-63.20352522 21.70163806 -64.24532524 24.84816994 -64 30 C-64.66 30.99 -65.32 31.98 -66 33 C-67.65 32.67 -69.3 32.34 -71 32 C-71.33 30.35 -71.66 28.7 -72 27 C-71.36835937 26.75378906 -70.73671875 26.50757813 -70.0859375 26.25390625 C-67.87752163 25.19543433 -67.87752163 25.19543433 -67.1640625 23.15234375 C-66.89722656 22.05599609 -66.89722656 22.05599609 -66.625 20.9375 C-63.47913498 10.49590548 -56.23207078 2.43735319 -46.7421875 -2.796875 C-30.5823256 -10.52710507 -15.02958358 -9.79031959 0 0 Z " fill="#4D6DE8" transform="translate(80,17)"/>
    <path d="M0 0 C1.27230469 0.00902344 2.54460937 0.01804688 3.85546875 0.02734375 C5.31919922 0.04474609 5.31919922 0.04474609 6.8125 0.0625 C6.8125 1.7125 6.8125 3.3625 6.8125 5.0625 C5.49185547 5.08376953 5.49185547 5.08376953 4.14453125 5.10546875 C-3.00078291 5.34434108 -3.00078291 5.34434108 -9.5 8 C-11.85829991 12.27987761 -12.27010152 16.28412088 -11.1875 21.0625 C-9.04852429 24.75421363 -7.89749414 25.87215089 -3.734375 26.98828125 C-1.85492188 27.17970703 -1.85492188 27.17970703 0.0625 27.375 C1.32578125 27.51550781 2.5890625 27.65601562 3.890625 27.80078125 C4.85484375 27.88714844 5.8190625 27.97351563 6.8125 28.0625 C6.8125 29.7125 6.8125 31.3625 6.8125 33.0625 C-5.84645954 33.68677746 -5.84645954 33.68677746 -10.8125 31.375 C-15.68874602 26.62707625 -18.31019316 23.15639585 -18.4375 16.25 C-18.37895877 11.78135296 -17.78130225 8.81904119 -15.1875 5.0625 C-10.19258822 0.4422066 -6.68446351 -0.06132535 0 0 Z " fill="#FFFFFF" transform="translate(133.1875,35.9375)"/>
    <path d="M0 0 C1.98 0 3.96 0 6 0 C6 9.24 6 18.48 6 28 C11.61 28 17.22 28 23 28 C23 29.65 23 31.3 23 33 C15.41 33 7.82 33 0 33 C0 22.11 0 11.22 0 0 Z " fill="#FFFFFF" transform="translate(223,36)"/>
    <path d="M0 0 C1.98 0 3.96 0 6 0 C6 9.24 6 18.48 6 28 C11.61 28 17.22 28 23 28 C23 29.65 23 31.3 23 33 C15.41 33 7.82 33 0 33 C0 22.11 0 11.22 0 0 Z " fill="#FFFFFF" transform="translate(187,36)"/>
    <path d="M0 0 C3.99922839 2.90167 7.25574288 5.88361432 10 10 C9.48275862 13.51724138 9.48275862 13.51724138 8 15 C6.33382885 15.04063832 4.66611905 15.042721 3 15 C2.15545644 11.62182575 1.89155081 9.32534757 3 6 C-3.71396505 2.36326893 -10.2491956 -0.36923914 -17.96875 1.46875 C-23.69233491 3.3179082 -28.99899884 6.63025847 -32.125 11.89453125 C-33.06990624 14.16821188 -33.62877962 16.33978672 -34.125 18.75 C-34.29257812 19.54921875 -34.46015625 20.3484375 -34.6328125 21.171875 C-34.75398438 21.77515625 -34.87515625 22.3784375 -35 23 C-39.875 22.125 -39.875 22.125 -41 21 C-41.04063832 19.33382885 -41.042721 17.66611905 -41 16 C-40.38125 15.95875 -39.7625 15.9175 -39.125 15.875 C-38.42375 15.58625 -37.7225 15.2975 -37 15 C-36.566875 13.700625 -36.566875 13.700625 -36.125 12.375 C-34.14264347 6.42793042 -30.43274415 2.48682348 -24.875 -0.375 C-16.63918919 -4.17868772 -8.12055403 -4.05321566 0 0 Z " fill="#5976EC" transform="translate(67,30)"/>
    <path d="M0 0 C1.67542976 0.28604898 3.34385343 0.61781233 5 1 C5 2.98 5 4.96 5 7 C4.48050781 7.24234375 3.96101563 7.4846875 3.42578125 7.734375 C0.20926395 9.28020586 -2.59904615 10.6532291 -5.3125 13 C-12.91518355 18.65781102 -21.73651764 20.05407765 -31 19 C-33.62531547 18.40351009 -36.12186824 17.66888357 -38.66796875 16.796875 C-40.95009111 16.01705429 -43.2157154 15.42522303 -45.5625 14.875 C-49 14 -49 14 -50 13 C-50.04063832 11.33382885 -50.042721 9.66611905 -50 8 C-48.68 7.34 -47.36 6.68 -46 6 C-45.01 6.66 -44.02 7.32 -43 8 C-43 8.99 -43 9.98 -43 11 C-33.61922774 14.80301578 -22.98352916 16.00685962 -13.21484375 12.73046875 C-7.03846761 9.64603304 -3.5076 7.51976 -1 1 C-0.67 0.67 -0.34 0.34 0 0 Z " fill="#5C78EB" transform="translate(80,69)"/>
    <path d="M0 0 C1.65 0 3.3 0 5 0 C5.07476562 0.56847656 5.14953125 1.13695312 5.2265625 1.72265625 C6.27909144 7.90368407 8.20307617 11.8931209 13 16 C18.95366326 19.69127122 25.1179498 19.82949214 32 19 C35.91416804 17.79801139 39.04257549 16.55241703 41.23828125 12.9921875 C42.17017024 10.55493936 41.73410152 9.44700506 41 7 C41.33 6.34 41.66 5.68 42 5 C44.375 4.8125 44.375 4.8125 47 5 C49 8 49 8 48.9375 9.8125 C46.52984167 15.43036943 42.22892536 19.05872949 37 22 C28.97924719 24.01864584 20.4988257 24.1560474 13.04296875 20.33984375 C9.01261285 17.69660842 4.7788927 14.51369917 3.3125 9.78125 C3.209375 9.1934375 3.10625 8.605625 3 8 C2.01 8 1.02 8 0 8 C-1.125 2.25 -1.125 2.25 0 0 Z " fill="#5372ED" transform="translate(28,56)"/>
    <path d="M0 0 C2.13081202 1.55178702 4.01985017 3.25010015 6 5 C9.21265916 6.32350658 9.21265916 6.32350658 12 7 C12 8.98 12 10.96 12 13 C9.625 13.625 9.625 13.625 7 14 C5 12 5 12 4.1796875 9.578125 C2.69743783 6.33877142 1.19903152 5.4831335 -1.875 3.75 C-2.73867187 3.24984375 -3.60234375 2.7496875 -4.4921875 2.234375 C-11.65726459 -1.29236076 -21.26204278 -1.22577178 -28.9140625 0.75390625 C-33.13499145 2.50689791 -35.20846115 3.67120563 -37 8 C-38.65 7.67 -40.3 7.34 -42 7 C-42.625 5.1875 -42.625 5.1875 -43 3 C-42.34 2.01 -41.68 1.02 -41 0 C-39.33392168 -0.04428115 -37.66620277 -0.03932042 -36 0 C-33.81158438 -0.85746709 -33.81158438 -0.85746709 -31.625 -2 C-21.43149799 -6.2536223 -9.67596215 -5.11772828 0 0 Z " fill="#4F6EED" transform="translate(73,23)"/>
    <path d="M0 0 C1.98 0 3.96 0 6 0 C8.92071164 6.07230958 11.43444751 12.01058731 13.2421875 18.50390625 C14.33195545 22.09339964 15.77167507 25.51572526 17.23046875 28.96875 C18 31 18 31 18 33 C15.69 33 13.38 33 11 33 C10.80889648 32.45174561 10.61779297 31.90349121 10.42089844 31.33862305 C9.53134706 28.787987 8.64078775 26.23770452 7.75 23.6875 C7.431521 22.77500488 7.11304199 21.86250977 6.78491211 20.92236328 C4.7920915 15.22497273 2.75809663 9.54658269 0.62890625 3.8984375 C0 2 0 2 0 0 Z " fill="#FFFFFF" transform="translate(268,36)"/>
    <path d="M0 0 C1.98 0 3.96 0 6 0 C6 10.89 6 21.78 6 33 C4.02 33 2.04 33 0 33 C0 22.11 0 11.22 0 0 Z " fill="#FFFFFF" transform="translate(303,36)"/>
    <path d="M0 0 C2.00720923 0.28674418 4.0085944 0.61866701 6 1 C6.3125 3.1875 6.3125 3.1875 6 6 C3.5625 8.625 3.5625 8.625 1 11 C-0.22117194 14.66351581 -0.18406354 18.06052972 -0.1875 21.875 C-0.19974609 22.58269531 -0.21199219 23.29039063 -0.22460938 24.01953125 C-0.23605653 28.11761255 0.04630471 31.36490145 2 35 C2.70125 35.495 3.4025 35.99 4.125 36.5 C4.74375 36.995 5.3625 37.49 6 38 C6.25 40.6875 6.25 40.6875 6 43 C1.25 44.125 1.25 44.125 -1 43 C-1.80312014 39.98829947 -2.43518232 37.0594291 -3 34 C-3.21140625 32.96488281 -3.4228125 31.92976563 -3.640625 30.86328125 C-4.9836948 23.58831985 -4.88411883 18.10255705 -3 11 C-2.63624561 9.14769041 -2.28188676 7.29350803 -1.9375 5.4375 C-1.12307692 1.12307692 -1.12307692 1.12307692 0 0 Z " fill="#5371ED" transform="translate(24,31)"/>
    <path d="M0 0 C7.59 0 15.18 0 23 0 C23 1.98 23 3.96 23 6 C15.41 6 7.82 6 0 6 C0 4.02 0 2.04 0 0 Z " fill="#FFFFFF" transform="translate(150,49)"/>
    <path d="M0 0 C1.5625 1.5625 1.5625 1.5625 3 4 C2.80235189 9.2376748 1.1153064 13.26171366 -1 18 C-1.74430216 20.31913662 -2.37508941 22.64456777 -3 25 C-4.98 25 -6.96 25 -9 25 C-8.29272908 20.84281869 -7.04627721 17.0291555 -5.625 13.0625 C-5.20476562 11.87785156 -4.78453125 10.69320312 -4.3515625 9.47265625 C-3.07676959 6.19724904 -1.62577116 3.11368452 0 0 Z " fill="#FFFFFF" transform="translate(264,44)"/>
    <path d="M0 0 C7.92 0 15.84 0 24 0 C24 1.65 24 3.3 24 5 C16.08 5 8.16 5 0 5 C0 3.35 0 1.7 0 0 Z " fill="#FFFFFF" transform="translate(151,64)"/>
    <path d="M0 0 C7.92 0 15.84 0 24 0 C24 1.65 24 3.3 24 5 C16.08 5 8.16 5 0 5 C0 3.35 0 1.7 0 0 Z " fill="#FFFFFF" transform="translate(151,36)"/>
    <path d="M0 0 C7.41695621 0.85237747 12.90468213 5.90468213 18 11 C18.886875 11.309375 19.77375 11.61875 20.6875 11.9375 C21.450625 12.288125 22.21375 12.63875 23 13 C23.8125 15.625 23.8125 15.625 24 18 C22.35 18.66 20.7 19.32 19 20 C18.5875 19.278125 18.175 18.55625 17.75 17.8125 C14.02934467 11.83287536 10.46368606 8.83693811 4.33984375 5.4296875 C2.20451609 4.12496309 0.6672089 2.84759544 -1 1 C-0.67 0.67 -0.34 0.34 0 0 Z " fill="#4E6DEC" transform="translate(70,13)"/>
    <path d="M0 0 C0.66 0.66 1.32 1.32 2 2 C-1.48702149 4.11712019 -1.48702149 4.11712019 -3.89697266 3.56689453 C-4.93797119 3.28628174 -4.93797119 3.28628174 -6 3 C-8.80232497 2.90453001 -11.57365009 2.86056005 -14.375 2.875 C-15.1175 2.87113281 -15.86 2.86726562 -16.625 2.86328125 C-20.8598522 2.87076332 -24.82909897 3.16581979 -29 4 C-29 2.68 -29 1.36 -29 0 C-19.43723174 -2.50826708 -9.50527462 -3.38429558 0 0 Z " fill="#6681EA" transform="translate(69,11)"/>
    <path d="M0 0 C0.65484375 0.27714844 1.3096875 0.55429688 1.984375 0.83984375 C12.74296263 5.10984816 22.60444218 5.45809303 34 4 C34 4.99 34 5.98 34 7 C21.68057464 9.22389627 10.02640671 10.26229014 -1 3 C-0.67 2.01 -0.34 1.02 0 0 Z " fill="#4B69E5" transform="translate(34,89)"/>
    <path d="M0 0 C0.66 0 1.32 0 2 0 C2 0.66 2 1.32 2 2 C7.94 2 13.88 2 20 2 C20 3.32 20 4.64 20 6 C13.07 6 6.14 6 -1 6 C-1 1 -1 1 0 0 Z " fill="#FFFFFF" transform="translate(225,63)"/>
    <path d="M0 0 C1.32 0 2.64 0 4 0 C4.625 2.375 4.625 2.375 5 5 C4.34 5.66 3.68 6.32 3 7 C2.59952556 9.32275177 2.2602896 11.65739357 2 14 C1.34 14 0.68 14 0 14 C0.33 15.32 0.66 16.64 1 18 C0.01 18.33 -0.98 18.66 -2 19 C-3.87052858 13.38841426 -3.75605958 7.82714398 -1.5 2.375 C-1.005 1.59125 -0.51 0.8075 0 0 Z " fill="#FFFFFF" transform="translate(118,41)"/>
    <path d="M0 0 C0.66 0.33 1.32 0.66 2 1 C-1.16673854 4.57979139 -4.83747569 6.96916466 -8.8203125 9.53515625 C-11.1840732 11.05933096 -11.1840732 11.05933096 -13.8125 13.4375 C-14.534375 13.953125 -15.25625 14.46875 -16 15 C-18.13671875 14.59765625 -18.13671875 14.59765625 -20 14 C-14.34455779 7.4463405 -8.17615508 3.00630933 0 0 Z " fill="#5875E9" transform="translate(39,12)"/>
    <path d="M0 0 C1.67542976 0.28604898 3.34385343 0.61781233 5 1 C5 2.98 5 4.96 5 7 C4.45730469 7.25394531 3.91460937 7.50789063 3.35546875 7.76953125 C2.64003906 8.11371094 1.92460938 8.45789063 1.1875 8.8125 C0.47980469 9.14894531 -0.22789063 9.48539063 -0.95703125 9.83203125 C-3.05757461 10.91413325 -3.05757461 10.91413325 -4.63671875 12.63671875 C-5.08660156 13.08660156 -5.53648438 13.53648438 -6 14 C-6.66 14 -7.32 14 -8 14 C-6.78048095 10.52906117 -5.56429023 8.56429023 -3 6 C-2.29289322 4.35008418 -1.62056011 2.68437744 -1 1 C-0.67 0.67 -0.34 0.34 0 0 Z " fill="#4F6EEB" transform="translate(80,69)"/>
    <path d="M0 0 C1.32 0.66 2.64 1.32 4 2 C4 2.99 4 3.98 4 5 C6.475 5.99 6.475 5.99 9 7 C9 7.66 9 8.32 9 9 C5.81680668 10.06106444 4.98060942 9.96156637 1.875 9.125 C0.81925781 8.85042969 0.81925781 8.85042969 -0.2578125 8.5703125 C-2 8 -2 8 -3 7 C-3.25 4.5625 -3.25 4.5625 -3 2 C-2.01 1.34 -1.02 0.68 0 0 Z " fill="#5472EC" transform="translate(33,75)"/>
    <path d="M0 0 C1.07310858 3.27185553 0.89263102 5.42947592 0.0625 8.75 C-0.13214844 9.54921875 -0.32679687 10.3484375 -0.52734375 11.171875 C-0.76130859 12.07679687 -0.76130859 12.07679687 -1 13 C-5.875 12.125 -5.875 12.125 -7 11 C-7.04063832 9.33382885 -7.042721 7.66611905 -7 6 C-5.68 5.67 -4.36 5.34 -3 5 C-2.814375 4.0409375 -2.814375 4.0409375 -2.625 3.0625 C-2.41875 2.381875 -2.2125 1.70125 -2 1 C-1.34 0.67 -0.68 0.34 0 0 Z " fill="#506EEB" transform="translate(33,40)"/>
    <path d="M0 0 C0.33 0 0.66 0 1 0 C1.02578125 0.58007812 1.0515625 1.16015625 1.078125 1.7578125 C1.48567151 7.3708394 2.49364211 10.58877555 6 15 C5.01 15 4.02 15 3 15 C3.33 16.32 3.66 17.64 4 19 C1.13792848 17.71700242 -1.0245088 16.469364 -3 14 C-3 13.01 -3 12.02 -3 11 C-2.34 11 -1.68 11 -1 11 C-1.33 9.68 -1.66 8.36 -2 7 C-1.34 7 -0.68 7 0 7 C0 4.69 0 2.38 0 0 Z " fill="#FFFFFF" transform="translate(120,48)"/>
    <path d="M0 0 C0.66 0.33 1.32 0.66 2 1 C0.68 3.64 -0.64 6.28 -2 9 C-3.65 8.67 -5.3 8.34 -7 8 C-7.625 6.1875 -7.625 6.1875 -8 4 C-7.34 3.01 -6.68 2.02 -6 1 C-3.4375 0.875 -3.4375 0.875 -1 1 C-0.67 0.67 -0.34 0.34 0 0 Z " fill="#5472ED" transform="translate(38,22)"/>
    <path d="M0 0 C-0.2265625 1.828125 -0.2265625 1.828125 -1 4 C-2.9609375 5.484375 -2.9609375 5.484375 -5.375 6.75 C-6.16648437 7.17796875 -6.95796875 7.6059375 -7.7734375 8.046875 C-10 9 -10 9 -13 9 C-13.33 8.01 -13.66 7.02 -14 6 C-12.04414675 4.99515796 -10.08523763 3.99626195 -8.125 3 C-6.48917969 2.1646875 -6.48917969 2.1646875 -4.8203125 1.3125 C-2 0 -2 0 0 0 Z " fill="#5270E8" transform="translate(81,86)"/>
    <path d="M0 0 C0.80566406 0.04833984 1.61132812 0.09667969 2.44140625 0.14648438 C3.28316406 0.20255859 4.12492187 0.25863281 4.9921875 0.31640625 C6.26642578 0.3947168 6.26642578 0.3947168 7.56640625 0.47460938 C9.66697874 0.60442003 11.76712941 0.74102365 13.8671875 0.87890625 C13.8671875 1.20890625 13.8671875 1.53890625 13.8671875 1.87890625 C9.9071875 1.87890625 5.9471875 1.87890625 1.8671875 1.87890625 C1.8671875 2.53890625 1.8671875 3.19890625 1.8671875 3.87890625 C-0.4759338 3.62329302 -2.81124653 3.28619853 -5.1328125 2.87890625 C-5.4628125 2.21890625 -5.7928125 1.55890625 -6.1328125 0.87890625 C-3.77622853 -0.29938574 -2.60708014 -0.16523747 0 0 Z " fill="#728AE7" transform="translate(46.1328125,83.12109375)"/>
    <path d="M0 0 C1.45922693 0.11409593 2.91740598 0.24165544 4.375 0.375 C5.59316406 0.47941406 5.59316406 0.47941406 6.8359375 0.5859375 C9 1 9 1 11 3 C9.4375 4.125 9.4375 4.125 7 5 C3.25 4.125 3.25 4.125 0 3 C0 2.01 0 1.02 0 0 Z " fill="#5D79E8" transform="translate(60,10)"/>
    <path d="M0 0 C2 2 2 2 2.046875 4.09375 C1.94890625 4.8878125 1.8509375 5.681875 1.75 6.5 C1.66234375 7.2940625 1.5746875 8.088125 1.484375 8.90625 C1 11 1 11 -1 13 C-1.22245393 11.39773045 -1.42746669 9.79303233 -1.625 8.1875 C-1.74101562 7.29417969 -1.85703125 6.40085937 -1.9765625 5.48046875 C-2 3 -2 3 0 0 Z " fill="#5C79E7" transform="translate(21,49)"/>
    <path d="M0 0 C0.66 0.33 1.32 0.66 2 1 C1.01 2.485 1.01 2.485 0 4 C-0.28875 4.70125 -0.5775 5.4025 -0.875 6.125 C-2 8 -2 8 -4 8.8125 C-6 9 -6 9 -8 8 C-5.36 5.36 -2.72 2.72 0 0 Z " fill="#5F7BE7" transform="translate(27,18)"/>
    <path d="M0 0 C0.99 0 1.98 0 3 0 C2.67 2.64 2.34 5.28 2 8 C1.01 7.67 0.02 7.34 -1 7 C-0.67 4.69 -0.34 2.38 0 0 Z " fill="#496AE6" transform="translate(21,43)"/>   
    <path d="M0 0 C0.66 0.33 1.32 0.66 2 1 C0.25 3.0625 0.25 3.0625 -2 5 C-4.25 4.75 -4.25 4.75 -6 4 C-3.94766315 1.7522025 -2.99332739 0.9977758 0 0 Z " fill="#4D6DEB" transform="translate(39,12)"/>
    <path d="M0 0 C-2.28176413 2.07384637 -3.44323483 2.98397191 -6.578125 3.07421875 C-7.90070312 2.88279297 -7.90070312 2.88279297 -9.25 2.6875 C-10.14203125 2.56761719 -11.0340625 2.44773437 -11.953125 2.32421875 C-12.62859375 2.21722656 -13.3040625 2.11023438 -14 2 C-14 1.67 -14 1.34 -14 1 C-4.58997722 -0.14806378 -4.58997722 -0.14806378 0 0 Z " fill="#4C69DD" transform="translate(66,20)"/>
    <path d="M0 0 C0.66 0 1.32 0 2 0 C0.47291037 3.43595166 -1.59927045 6.11912454 -4 9 C-3.4739075 5.21213403 -2.61896089 2.82847776 0 0 Z " fill="#FFFFFF" transform="translate(125,42)"/>
</svg>