<?xml version="1.0" encoding="UTF-8"?>
<svg version="1.1" xmlns="http://www.w3.org/2000/svg" width="210" height="202">
<path d="M0 0 C3 0.125 3 0.125 4 1.125 C4.24850252 2.45606376 4.4431282 3.79729624 4.61328125 5.140625 C7.79939887 29.00187547 14.96212919 48.32761784 34 64.125 C34 64.785 34 65.445 34 66.125 C34.59296875 66.40988281 35.1859375 66.69476563 35.796875 66.98828125 C38 68.125 38 68.125 41.25 70.3125 C60.30965795 82.25135638 82.96075709 86.38677156 105.07421875 81.9453125 C126.50058346 75.93792053 144.47930272 63.43782296 156.3359375 44.56640625 C158 42.125 158 42.125 160 41.125 C162.625 42.0625 162.625 42.0625 165 43.125 C163.01200925 56.51399797 150.12417322 67.37655003 139.87573242 75.21801758 C128.0749454 83.85920188 115.13091696 88.04619686 101 91.125 C100.19433594 91.31964844 99.38867188 91.51429688 98.55859375 91.71484375 C75.92027567 95.34388711 51.2832342 88.19377246 32.9375 74.9375 C13.09753394 59.46024899 0.47983256 39.34967412 -3.58984375 14.52734375 C-3.94720289 11.56296457 -4.13417554 8.73205026 -4.125 5.75 C-4.12757812 4.89664063 -4.13015625 4.04328125 -4.1328125 3.1640625 C-3.9176357 -0.1395342 -3.37660402 0.14069183 0 0 Z " fill="#4D6AE7" transform="translate(20,100.875)"/>
<path d="M0 0 C7.61187932 5.9045419 14.3910497 12.50676648 20.5078125 19.9453125 C21.20970703 20.79802734 21.20970703 20.79802734 21.92578125 21.66796875 C23.86621386 24.25741977 24.54245403 25.54693488 24.2578125 28.8203125 C23.8865625 29.8721875 23.8865625 29.8721875 23.5078125 30.9453125 C21.0328125 31.4403125 21.0328125 31.4403125 18.5078125 31.9453125 C17.58162109 30.69427734 17.58162109 30.69427734 16.63671875 29.41796875 C2.48908038 10.51311652 -14.79794167 -3.09844923 -38.59765625 -7.5859375 C-61.22865997 -10.30982962 -82.52130573 -6.11097353 -101.4921875 6.9453125 C-108.80148522 12.69881593 -115.19294735 19.28625448 -120.4921875 26.9453125 C-121.14058594 27.86957031 -121.78898437 28.79382812 -122.45703125 29.74609375 C-124.62705719 33.15732454 -126.41883164 36.63255023 -128.0546875 40.3203125 C-128.35842285 41.00496582 -128.6621582 41.68961914 -128.97509766 42.39501953 C-131.64259397 48.72293758 -132.96011529 55.04774191 -133.984375 61.8125 C-134.4921875 64.9453125 -134.4921875 64.9453125 -135.4921875 66.9453125 C-137.8353088 66.68969927 -140.17062153 66.35260478 -142.4921875 65.9453125 C-145.1511336 60.62742031 -141.0281919 50.48319792 -139.26953125 44.88671875 C-131.33101828 21.42552671 -114.02648065 2.8605908 -92.30859375 -8.7578125 C-62.58035406 -22.6239879 -26.54043272 -19.21893404 0 0 Z " fill="#4D6CE6" transform="translate(159.4921875,29.0546875)"/>
<path d="M0 0 C4.24536428 3.40073683 7.32746623 7.16703352 10.3125 11.6875 C10.951875 12.595 11.59125 13.5025 12.25 14.4375 C13.3125 16.6875 13.3125 16.6875 13.25 18.75 C12.03633388 21.25824331 10.36689184 22.83192027 8.3125 24.6875 C5.67532304 23.36891152 5.56618729 22.20856941 4.5 19.5 C-0.3087076 8.36775384 -9.01273132 3.05906425 -19.85546875 -1.33203125 C-30.13369917 -4.8904255 -41.62428603 -4.32287712 -51.6875 -0.3125 C-55.18368983 1.47310768 -58.44220515 3.48259112 -61.6875 5.6875 C-62.574375 6.265 -63.46125 6.8425 -64.375 7.4375 C-73.65561322 16.46728584 -77.48619695 27.07381793 -78.6875 39.6875 C-79.3475 40.3475 -80.0075 41.0075 -80.6875 41.6875 C-84.3125 41.3125 -84.3125 41.3125 -87.6875 40.6875 C-88.92984995 28.51247049 -83.17583201 16.90133133 -75.6875 7.6875 C-75.07132813 6.86636719 -74.45515625 6.04523438 -73.8203125 5.19921875 C-67.17240491 -2.62972736 -58.49186226 -7.62372793 -48.6875 -10.3125 C-47.93984375 -10.53550781 -47.1921875 -10.75851563 -46.421875 -10.98828125 C-29.57935543 -15.44124955 -13.6437158 -9.97215108 0 0 Z " fill="#4559B4" transform="translate(139.6875,60.3125)"/>
<path d="M0 0 C0.25523438 0.80050781 0.25523438 0.80050781 0.515625 1.6171875 C1.3189872 4.08709894 2.1546596 6.54414039 3 9 C3.2784375 9.82757813 3.556875 10.65515625 3.84375 11.5078125 C8.08350463 23.16713773 15.51070875 30.79370961 26.59375 36.28515625 C37.79294662 40.88012075 50.05389107 41.30205972 61.40234375 37.11328125 C74.29731046 31.68495084 81.15527331 22.78814041 88 11 C92.875 15.75 92.875 15.75 94 18 C87.70532694 31.15728654 77.56294935 40.85810377 63.94921875 46.03515625 C50.09385695 50.56796998 35.78464008 49.99684357 22.31640625 44.203125 C18.52235257 42.23252039 15.2821055 39.71809979 12 37 C10.78763672 36.08541016 10.78763672 36.08541016 9.55078125 35.15234375 C0.24346798 27.29885276 -5.99468396 15.70932341 -7.8125 3.6875 C-7.874375 2.800625 -7.93625 1.91375 -8 1 C-5.29120665 -0.35439668 -2.99066732 -0.06501451 0 0 Z " fill="#4259B6" transform="translate(60,107)"/>
<path d="M0 0 C1.32 0 2.64 0 4 0 C4 0.66 4 1.32 4 2 C4.99 2.33 5.98 2.66 7 3 C5.36813898 12.17147205 -4.66449923 20.69149019 -11.75390625 26.1015625 C-29.57978108 38.51227588 -49.41721404 42.51977815 -70.7890625 38.7421875 C-79.43685445 36.74330615 -87.02370005 33.26439562 -94.5 28.5625 C-95.07548584 28.20341553 -95.65097168 27.84433105 -96.24389648 27.47436523 C-100.32722431 24.78353076 -103.04883947 21.82659808 -106 18 C-104.35 16.68 -102.7 15.36 -101 14 C-97.64886201 15.95039777 -94.54050539 18.054309 -91.4375 20.375 C-80.67186614 27.95259645 -68.75370328 31.40385326 -55.6875 31.3125 C-54.44637451 31.30621582 -54.44637451 31.30621582 -53.18017578 31.29980469 C-36.54927022 30.99500743 -21.0966381 24.09663638 -9.125 12.5625 C-5.82102789 9.13484979 -3.32522437 5.67371687 -1.16796875 1.43359375 C-0.78253906 0.96050781 -0.39710938 0.48742187 0 0 Z " fill="#4D6BE5" transform="translate(162,133)"/>
<path d="M0 0 C6.2520552 5.35332227 12.30147385 11.00313055 16.5 18.140625 C16.13155512 21.1049315 15.65799752 21.98262748 13.5 24.140625 C10.72463893 23.971051 9.71433091 23.37344133 7.82421875 21.3203125 C7.01404297 20.17949219 7.01404297 20.17949219 6.1875 19.015625 C-3.7008512 5.87261733 -16.90751704 -3.02482788 -33.32421875 -5.59863281 C-50.60896625 -7.67000965 -65.46926348 -4.73947431 -80.5 4.140625 C-81.89222266 5.26160428 -83.25532312 6.42154048 -84.5625 7.640625 C-87.5 10.140625 -87.5 10.140625 -90.3125 10.265625 C-92.94787889 8.91028729 -93.32011253 7.77802052 -94.5 5.140625 C-69.17731886 -19.38392005 -27.82609293 -21.69772722 0 0 Z " fill="#4E6CE5" transform="translate(151.5,45.859375)"/>
<path d="M0 0 C2.86724686 0.57344937 3.8614515 0.8614515 6 3 C5.687956 6.94958549 3.228853 10.02891364 1.1875 13.3125 C-7.26594651 27.69090679 -9.42830225 44.09789686 -5.875 60.375 C-3.66663103 67.91066662 -0.16839218 75.13491289 4.4375 81.5 C6 84 6 84 5.75 86.375 C5.5025 86.91125 5.255 87.4475 5 88 C2.03 88.495 2.03 88.495 -1 89 C-12.52667617 71.26665205 -18.97439445 53.49036448 -15.3125 31.9375 C-12.63673054 20.48068429 -7.77544627 8.92736423 0 0 Z " fill="#4D6CE5" transform="translate(51,57)"/>
<path d="M0 0 C3 0.125 3 0.125 4 1.125 C4.24850252 2.45606376 4.4431282 3.79729624 4.61328125 5.140625 C4.72478516 5.97384277 4.83628906 6.80706055 4.95117188 7.66552734 C5.07041016 8.55965332 5.18964844 9.4537793 5.3125 10.375 C6.63409976 19.70755306 8.26899959 28.70427374 12.55078125 37.203125 C14.35012147 40.83090528 15.11716802 44.18621115 16 48.125 C15.01 48.125 14.02 48.125 13 48.125 C14.33882523 51.90048716 16.01635888 54.73887689 18.5 57.875 C19.1084375 58.65359375 19.716875 59.4321875 20.34375 60.234375 C21.87088533 62.2179808 21.87088533 62.2179808 24 63.125 C24 63.785 24 64.445 24 65.125 C24.66 65.125 25.32 65.125 26 65.125 C26 65.785 26 66.445 26 67.125 C26.56074219 67.38539063 27.12148438 67.64578125 27.69921875 67.9140625 C30.24462729 69.2537512 32.47992269 70.81760566 34.8125 72.5 C53.69513418 85.83378992 72.39542718 89.35857194 95 89.125 C95.33 88.465 95.66 87.805 96 87.125 C96 87.785 96 88.445 96 89.125 C107.12041998 87.11967836 117.50321659 84.38813406 128 80.125 C128.33 80.785 128.66 81.445 129 82.125 C103.98301603 93.19446193 80.03477997 95.58174561 53.89453125 86.2734375 C29.76380833 76.69930452 12.38776412 58.64989914 1.85742188 35.21386719 C-1.93513405 25.97437161 -4.15571634 15.73280976 -4.125 5.75 C-4.12757812 4.89664063 -4.13015625 4.04328125 -4.1328125 3.1640625 C-3.9176357 -0.1395342 -3.37660402 0.14069183 0 0 Z " fill="#4F6CE5" transform="translate(20,100.875)"/>
<path d="M0 0 C37.83254904 -1.00382312 37.83254904 -1.00382312 55.50390625 8.70703125 C58.08396838 10.17592989 58.08396838 10.17592989 61.5625 10.8125 C73.21397259 14.83755417 86.33607323 29.20465239 92 40 C91.71484375 42.83203125 91.71484375 42.83203125 91 45 C89.35 45.33 87.7 45.66 86 46 C84.5345138 44.10934188 83.07765297 42.21298003 81.625 40.3125 C81.2125 39.78205078 80.8 39.25160156 80.375 38.70507812 C78.56660517 36.32791396 77.0694516 34.18106059 75.99609375 31.3828125 C71.74807437 21.22088379 57.47692097 14.39032827 47.8125 10.3125 C31.10733815 3.64449593 15.83186602 3.62375959 -2 4 C-1.34 2.68 -0.68 1.36 0 0 Z " fill="#4A67CD" transform="translate(92,15)"/>
<path d="M0 0 C0.98162109 -0.01160156 1.96324219 -0.02320313 2.97460938 -0.03515625 C18.13762869 0.02505428 27.42544865 6.30729787 38.5234375 16.03125 C41.23888751 18.97217059 43.6875 22.23831694 43.6875 26.375 C44.3475 26.375 45.0075 26.375 45.6875 26.375 C45.3575 27.695 45.0275 29.015 44.6875 30.375 C44.0275 30.375 43.3675 30.375 42.6875 30.375 C40.65728336 27.68176216 38.81866468 24.88354524 36.953125 22.07421875 C34.40481715 19.0382175 32.25849331 18.00941617 28.6875 16.375 C27.8625 15.70855469 27.0375 15.04210937 26.1875 14.35546875 C23.45789688 12.19311128 20.90936268 10.99021743 17.6875 9.6875 C16.676875 9.27113281 15.66625 8.85476562 14.625 8.42578125 C4.57837592 4.83197556 -5.75838234 5.79632786 -15.8515625 8.71875 C-18.3125 9.375 -18.3125 9.375 -21.3125 9.375 C-22.2715625 9.87 -22.2715625 9.87 -23.25 10.375 C-25.3125 11.375 -25.3125 11.375 -29.3125 11.375 C-29.1875 9.5625 -29.1875 9.5625 -28.3125 7.375 C-25.04042188 5.41175313 -21.98544626 4.26541121 -18.3125 3.375 C-17.34828125 2.87742188 -16.3840625 2.37984375 -15.390625 1.8671875 C-10.38559162 -0.29624093 -5.37058419 -0.06273233 0 0 Z " fill="#4C6DE1" transform="translate(105.3125,50.625)"/>
<path d="M0 0 C3.35113799 1.95039777 6.45949461 4.054309 9.5625 6.375 C21.68891563 14.91040862 34.02810328 17.3527844 48.5625 17.125 C49.66658203 17.11597656 50.77066406 17.10695312 51.90820312 17.09765625 C54.6057017 17.07430128 57.30273077 17.04155054 60 17 C60 17.66 60 18.32 60 19 C48.5726704 21.81707529 36.07465859 20.45031157 25 17 C23.41930797 16.59374738 21.83621607 16.19661853 20.25 15.8125 C19.1775 15.544375 18.105 15.27625 17 15 C17 15.66 17 16.32 17 17 C33.46939796 23.92386935 50.66542643 25.05159661 67.72265625 19.97265625 C70.4798619 19.15436756 73.17247533 18.50777853 76 18 C76 17.34 76 16.68 76 16 C76.64066406 15.69707031 77.28132813 15.39414063 77.94140625 15.08203125 C83.36659682 12.4543309 88.20277542 9.65006218 93 6 C93.99 6.495 93.99 6.495 95 7 C79.08665454 20.8713675 60.98381514 26.83758926 40 26 C27.63646203 24.98896302 16.95544549 21.1380004 6.5 14.5625 C5.92451416 14.20341553 5.34902832 13.84433105 4.75610352 13.47436523 C0.67277569 10.78353076 -2.04883947 7.82659808 -5 4 C-3.35 2.68 -1.7 1.36 0 0 Z " fill="#4358C3" transform="translate(61,147)"/>
<path d="M0 0 C0.495 0.99 0.495 0.99 1 2 C-2.56792264 1.43237594 -5.13875103 0.4949342 -8.25 -1.3125 C-20.58528032 -7.4891178 -32.80286216 -8.36657752 -46.4375 -8.4375 C-47.7366333 -8.4475708 -49.0357666 -8.4576416 -50.37426758 -8.46801758 C-51.59009521 -8.45665771 -52.80592285 -8.44529785 -54.05859375 -8.43359375 C-55.15486084 -8.42384521 -56.25112793 -8.41409668 -57.38061523 -8.40405273 C-58.67721069 -8.20404663 -58.67721069 -8.20404663 -60 -8 C-60.99 -6.515 -60.99 -6.515 -62 -5 C-61.21367188 -5.15855469 -60.42734375 -5.31710938 -59.6171875 -5.48046875 C-45.7805975 -7.46779755 -32.2184112 -6.40158057 -19 -2 C-18.35305176 -1.78569336 -17.70610352 -1.57138672 -17.03955078 -1.35058594 C-3.42098739 3.27992782 6.5754745 11.23124726 17 21 C16.67 21.99 16.34 22.98 16 24 C15.51273437 23.45472656 15.02546875 22.90945312 14.5234375 22.34765625 C0.53571977 7.46981103 -19.27183019 -2.43302593 -39.80078125 -3.24609375 C-50.02062475 -3.45945574 -59.92477331 -2.70973544 -70 -1 C-69.67 -1.66 -69.34 -2.32 -69 -3 C-65.9375 -3.625 -65.9375 -3.625 -63 -4 C-63 -4.66 -63 -5.32 -63 -6 C-68.78426197 -6.51415662 -72.9849834 -5.11775019 -78.3515625 -2.97265625 C-80.89927865 -2.03699059 -83.32949242 -1.45793903 -86 -1 C-86 -0.34 -86 0.32 -86 1 C-87.98 1.66 -89.96 2.32 -92 3 C-90.61750136 -1.14749593 -88.52965601 -1.76537784 -84.7734375 -3.73828125 C-58.92344493 -15.49820745 -24.48385121 -15.82289704 0 0 Z " fill="#3D57B5" transform="translate(152,24)"/>
<path d="M0 0 C1.98 0.66 3.96 1.32 6 2 C4.09317261 14.84236758 -7.93940035 25.43888799 -17.81640625 32.98046875 C-27.34403696 40 -27.34403696 40 -30 40 C-28.65459949 35.96379847 -26.58054491 35.14832694 -23 33 C-21.515 32.505 -21.515 32.505 -20 32 C-20.33 31.34 -20.66 30.68 -21 30 C-23.22739701 31.06201737 -23.22739701 31.06201737 -26 33 C-26.61617187 33.15339844 -27.23234375 33.30679688 -27.8671875 33.46484375 C-30.52427352 34.13154848 -32.7008289 35.2925238 -35.125 36.5625 C-39.77903683 39 -39.77903683 39 -42 39 C-42 38.34 -42 37.68 -42 37 C-40.94941406 36.43152344 -39.89882812 35.86304688 -38.81640625 35.27734375 C-31.08772047 31.04738024 -23.61764336 26.88530858 -17 21 C-16.32839844 20.40960938 -15.65679687 19.81921875 -14.96484375 19.2109375 C-9.94356607 14.50893181 -6.26490266 9.22437814 -2.56640625 3.44140625 C-1 1 -1 1 0 0 Z " fill="#3E54C9" transform="translate(179,142)"/>
<path d="M0 0 C0.25523438 0.80050781 0.25523438 0.80050781 0.515625 1.6171875 C1.3189872 4.08709894 2.1546596 6.54414039 3 9 C3.2784375 9.82757813 3.556875 10.65515625 3.84375 11.5078125 C6.65943902 19.25095731 11.10325255 25.28248499 17 31 C14 31 14 31 11.87890625 29.09375 C4.13615725 20.42396023 0.72837971 13.24423154 -2 2 C-2.99 2 -3.98 2 -5 2 C-1.22886646 17.39509811 5.03088195 30.00862419 18.7890625 38.67578125 C19.51867187 39.11277344 20.24828125 39.54976562 21 40 C22.18722656 40.7734375 22.18722656 40.7734375 23.3984375 41.5625 C33.44951034 47.11624596 46.81207759 47.52256529 57.75 44.75 C59.50992077 44.19731866 61.26094454 43.6151942 63 43 C64.15435547 42.59974609 64.15435547 42.59974609 65.33203125 42.19140625 C75.25810804 38.28008002 84.76036488 30.33767377 90 21 C90.28270097 17.79585499 90.28270097 17.79585499 90 15 C89.34 15.66 88.68 16.32 88 17 C86.515 16.505 86.515 16.505 85 16 C85.99 14.35 86.98 12.7 88 11 C92.875 15.75 92.875 15.75 94 18 C87.70532694 31.15728654 77.56294935 40.85810377 63.94921875 46.03515625 C50.09385695 50.56796998 35.78464008 49.99684357 22.31640625 44.203125 C18.52235257 42.23252039 15.2821055 39.71809979 12 37 C10.78763672 36.08541016 10.78763672 36.08541016 9.55078125 35.15234375 C0.24346798 27.29885276 -5.99468396 15.70932341 -7.8125 3.6875 C-7.874375 2.800625 -7.93625 1.91375 -8 1 C-5.29120665 -0.35439668 -2.99066732 -0.06501451 0 0 Z " fill="#4057B3" transform="translate(60,107)"/>
<path d="M0 0 C0.99 0 1.98 0 3 0 C3.32871094 1.02738281 3.65742187 2.05476563 3.99609375 3.11328125 C7.06525109 12.22380932 10.92463804 23.46231902 20.1484375 28.07421875 C22 29 22 29 24 32.4375 C26.44629152 36.13770824 28.87597478 36.84601919 33.125 37.875 C35.08131161 38.26040802 37.0394199 38.63692961 39 39 C39.99 39.33 40.98 39.66 42 40 C43.55421729 40.08106686 45.11167027 40.10756898 46.66796875 40.09765625 C47.56064453 40.09443359 48.45332031 40.09121094 49.37304688 40.08789062 C50.30181641 40.07951172 51.23058594 40.07113281 52.1875 40.0625 C53.12787109 40.05798828 54.06824219 40.05347656 55.03710938 40.04882812 C57.35813712 40.03704626 59.67903644 40.02059558 62 40 C62 41.32 62 42.64 62 44 C48.96400011 45.93125924 35.50630695 45.57251729 24.0625 38.1875 C22.68705638 37.15269158 21.33193359 36.0902415 20 35 C19.31550781 34.47535156 18.63101563 33.95070312 17.92578125 33.41015625 C10.57074429 27.45607871 5.24181386 19.87233267 2 11 C1.608125 9.96875 1.21625 8.9375 0.8125 7.875 C0.02456865 5.08693523 -0.16925769 2.8773807 0 0 Z " fill="#4E6BE6" transform="translate(55,109)"/>
<path d="M0 0 C0.66 0 1.32 0 2 0 C3.17192435 3.12305373 4.33663876 6.24874739 5.5 9.375 C5.83386719 10.26445312 6.16773438 11.15390625 6.51171875 12.0703125 C6.82753906 12.92109375 7.14335937 13.771875 7.46875 14.6484375 C7.76201172 15.43395996 8.05527344 16.21948242 8.35742188 17.02880859 C9 19 9 19 9 21 C9.66 21 10.32 21 11 21 C11.27972656 21.54527344 11.55945312 22.09054688 11.84765625 22.65234375 C16.91290944 32.71195627 16.91290944 32.71195627 25 40 C25 40.66 25 41.32 25 42 C25.66 42 26.32 42 27 42 C27 42.66 27 43.32 27 44 C27.56074219 44.26039063 28.12148438 44.52078125 28.69921875 44.7890625 C31.24462729 46.1287512 33.47992269 47.69260566 35.8125 49.375 C54.69513418 62.70878992 73.39542718 66.23357194 96 66 C96.33 65.34 96.66 64.68 97 64 C97 64.66 97 65.32 97 66 C108.12041998 63.99467836 118.50321659 61.26313406 129 57 C129.33 57.66 129.66 58.32 130 59 C104.98301603 70.06946193 81.03477997 72.45674561 54.89453125 63.1484375 C30.6144857 53.5150591 13.4024336 35.40162146 2.76708984 11.8828125 C1.20172813 8.04065159 0.39584439 4.11678167 0 0 Z " fill="#495DB1" transform="translate(19,124)"/>
<path d="M0 0 C0.98892503 2.5855028 1.14819344 3.65421532 0.0390625 6.2421875 C-0.42757812 7.11101562 -0.89421875 7.97984375 -1.375 8.875 C-7.91829602 23.72955781 -6.03832166 43.16068873 -0.5625 58 C0.67200317 61.0959327 1.93697198 63.89559594 3.66015625 66.75 C5 69 5 69 5 71 C5.99 71 6.98 71 8 71 C8 72.32 8 73.64 8 75 C9.32 75 10.64 75 12 75 C11.360625 73.906875 10.72125 72.81375 10.0625 71.6875 C8.73398675 69.4161709 7.84186703 67.52560108 7 65 C6.34 65 5.68 65 5 65 C4.3897957 63.54418264 3.78728154 62.08514232 3.1875 60.625 C2.85105469 59.81289062 2.51460937 59.00078125 2.16796875 58.1640625 C1.78253906 57.11992188 1.39710937 56.07578125 1 55 C0.73759521 54.29697754 0.47519043 53.59395508 0.20483398 52.86962891 C-2.16517766 45.90248449 -2.4205969 39.4409981 -2.3125 32.125 C-2.31572266 31.01125 -2.31894531 29.8975 -2.32226562 28.75 C-2.26308376 19.81891865 -2.26308376 19.81891865 0 16 C0.66 16 1.32 16 2 16 C1.76023437 17.70929688 1.76023437 17.70929688 1.515625 19.453125 C-0.72764631 37.54248297 1.49872168 54.38321607 12.4375 69.5 C14 72 14 72 13.75 74.375 C13.5025 74.91125 13.255 75.4475 13 76 C10.03 76.495 10.03 76.495 7 77 C-4.52667617 59.26665205 -10.97439445 41.49036448 -7.3125 19.9375 C-5.74192276 13.09752229 -3.13718931 6.27437861 0 0 Z " fill="#4459B3" transform="translate(43,69)"/>
<path d="M0 0 C22.63092919 -0.60047368 42.27466927 -0.34641728 62 12 C64.48971594 14.63969883 65 15.32884626 65 19 C62.15708515 17.96621278 59.66776804 16.80207458 57.0625 15.25 C37.81143561 4.12438487 19.71653162 3.54179575 -2 4 C-1.34 2.68 -0.68 1.36 0 0 Z " fill="#4D6CE6" transform="translate(92,15)"/>
<path d="M0 0 C0 0.99 0 1.98 0 3 C-1.97133986 4.37535339 -3.97681922 5.70211044 -6 7 C-7.68762851 8.6454378 -9.3540349 10.31288577 -11 12 C-11.969375 12.763125 -12.93875 13.52625 -13.9375 14.3125 C-20.39354403 19.6097669 -27.29887942 28.73218815 -29 37 C-29.66 37 -30.32 37 -31 37 C-31 38.65 -31 40.3 -31 42 C-31.99 42.495 -31.99 42.495 -33 43 C-36.19100838 51.03984533 -37.83079017 59.46169136 -39 68 C-37.515 67.505 -37.515 67.505 -36 67 C-35.93941406 66.37351562 -35.87882812 65.74703125 -35.81640625 65.1015625 C-35.73261719 64.28429687 -35.64882813 63.46703125 -35.5625 62.625 C-35.48128906 61.81289062 -35.40007813 61.00078125 -35.31640625 60.1640625 C-35 58 -35 58 -34 56 C-33.34 56 -32.68 56 -32 56 C-32.0825 55.21625 -32.165 54.4325 -32.25 53.625 C-31.60969189 44.34053246 -26.07878102 33.94717831 -20 27 C-19.34 27.33 -18.68 27.66 -18 28 C-19.0209375 29.485 -19.0209375 29.485 -20.0625 31 C-26.64965392 41.65955392 -30.62564782 52.53234043 -32.4921875 64.8671875 C-33 68 -33 68 -34 70 C-36.3431213 69.74438677 -38.67843403 69.40729228 -41 69 C-43.6589461 63.68210781 -39.5360044 53.53788542 -37.77734375 47.94140625 C-31.09124335 28.18154869 -17.63849497 11.18538706 0 0 Z " fill="#4554AF" transform="translate(58,26)"/>
<path d="M0 0 C18.45803334 -1.01707531 36.94788758 4.96787874 51 17 C56.31415829 21.81595595 61.3487656 26.79290152 65 33 C64.63155512 35.9643065 64.15799752 36.84200248 62 39 C59.22463893 38.830426 58.21433091 38.23281633 56.32421875 36.1796875 C55.51404297 35.03886719 55.51404297 35.03886719 54.6875 33.875 C46.67114849 23.22014286 37.00531048 16.74431311 25 11 C29.75740567 10.68470802 32.46267551 11.41558981 36.5625 13.8125 C37.92568359 14.59560547 37.92568359 14.59560547 39.31640625 15.39453125 C40.20199219 15.92433594 41.08757812 16.45414063 42 17 C42.86496094 17.48210938 43.72992188 17.96421875 44.62109375 18.4609375 C47.05774988 20.03736199 48.64487418 21.59422455 50.5 23.8125 C51.08910156 24.51246094 51.67820313 25.21242188 52.28515625 25.93359375 C52.85105469 26.61550781 53.41695312 27.29742187 54 28 C54.51433594 28.58910156 55.02867187 29.17820312 55.55859375 29.78515625 C59 33.75300992 59 33.75300992 59 36 C60.32 36 61.64 36 63 36 C60.66434816 30.67990414 57.36361721 24.67212449 51.96484375 21.98828125 C50 21 50 21 47.5 17.9375 C45.3342034 14.91369409 45.3342034 14.91369409 42.6875 14.125 C41.8521875 14.063125 41.8521875 14.063125 41 14 C41 13.34 41 12.68 41 12 C39.02 11.67 37.04 11.34 35 11 C35 10.34 35 9.68 35 9 C33.91460937 8.73445313 32.82921875 8.46890625 31.7109375 8.1953125 C30.26559353 7.83866918 28.82028278 7.4818912 27.375 7.125 C26.66214844 6.95097656 25.94929688 6.77695312 25.21484375 6.59765625 C22.04744438 5.81307109 18.98658209 4.99525629 15.90625 3.90625 C12.598984 2.874952 9.57865982 2.58644856 6.125 2.375 C4.97257812 2.30023438 3.82015625 2.22546875 2.6328125 2.1484375 C1.32957031 2.07496094 1.32957031 2.07496094 0 2 C0 1.34 0 0.68 0 0 Z " fill="#495FB7" transform="translate(103,31)"/>
<path d="M0 0 C1.8253125 0.0309375 1.8253125 0.0309375 3.6875 0.0625 C3.6875 0.3925 3.6875 0.7225 3.6875 1.0625 C2.81609375 1.22105469 1.9446875 1.37960938 1.046875 1.54296875 C-7.28670732 3.17541291 -14.59497628 5.47598208 -22.3125 9.0625 C-23.92125 9.7740625 -23.92125 9.7740625 -25.5625 10.5 C-28.81062821 12.34552739 -31.6593081 14.53059715 -34.578125 16.85546875 C-36.3125 18.0625 -36.3125 18.0625 -38.3125 18.0625 C-38.3125 19.3825 -38.3125 20.7025 -38.3125 22.0625 C-34.39105803 19.89319168 -30.67003304 17.63544132 -27 15.0625 C-22.35444723 11.93659416 -17.60840374 9.84233048 -12.3125 8.0625 C-11.60657715 7.81459717 -10.9006543 7.56669434 -10.17333984 7.3112793 C-3.6921392 5.17254745 2.38725845 4.47453628 9.1875 4.25 C10.17492187 4.19908203 11.16234375 4.14816406 12.1796875 4.09570312 C17.57648474 3.87761337 17.57648474 3.87761337 19.6875 4.0625 C20.3475 4.7225 21.0075 5.3825 21.6875 6.0625 C23.65440374 6.73542501 23.65440374 6.73542501 25.8125 7.1875 C27.09125 7.47625 28.37 7.765 29.6875 8.0625 C29.6875 8.7225 29.6875 9.3825 29.6875 10.0625 C29.04167969 9.918125 28.39585938 9.77375 27.73046875 9.625 C7.95715624 5.72984678 -9.85024853 7.74587133 -27.3125 18.0625 C-28.70472266 19.18347928 -30.06782312 20.34341548 -31.375 21.5625 C-34.3125 24.0625 -34.3125 24.0625 -37.125 24.1875 C-39.76037889 22.83216229 -40.13261253 21.69989552 -41.3125 19.0625 C-30.84558498 8.92548774 -14.98252151 -0.25394104 0 0 Z " fill="#4358B2" transform="translate(98.3125,31.9375)"/>
<path d="M0 0 C2.76072718 0.36245871 3.82686366 0.81253246 5.74609375 2.890625 C6.30425781 3.66921875 6.86242188 4.4478125 7.4375 5.25 C14.37025007 14.57233626 22.9284792 21.28951354 33 27 C33.66 27 34.32 27 35 27 C35 27.66 35 28.32 35 29 C35.515625 29.0825 36.03125 29.165 36.5625 29.25 C40.04455732 30.32140225 42.87200885 32.13523605 46 34 C46 34.99 46 35.98 46 37 C34.94690426 35.21724262 27.20091175 29.30743952 18.34765625 22.734375 C16.59894144 21.4424792 14.80901554 20.20601036 13 19 C13 18.34 13 17.68 13 17 C12.34 17 11.68 17 11 17 C11 16.34 11 15.68 11 15 C10.01 14.67 9.02 14.34 8 14 C5.95703125 11.85546875 5.95703125 11.85546875 3.8125 9.1875 C3.09707031 8.31480469 2.38164063 7.44210938 1.64453125 6.54296875 C0 4 0 4 0 0 Z " fill="#4D6DE7" transform="translate(33,149)"/>
<path d="M0 0 C0 0.66 0 1.32 0 2 C-4.08204133 3.5585976 -8.13147601 5.04460825 -12.3125 6.3125 C-17.05522934 7.85224025 -21.21752577 10.19977685 -25.51953125 12.6953125 C-28 14 -28 14 -30.1796875 14.54296875 C-33.23597338 15.3103195 -34.86242198 17.76299974 -37 20 C-38.19241228 21.12134135 -39.40132441 22.22536085 -40.625 23.3125 C-41.19476563 23.82425781 -41.76453125 24.33601563 -42.3515625 24.86328125 C-44 26 -44 26 -47 26 C-46.82701599 23.66471585 -46.29774631 22.30822418 -44.66796875 20.62109375 C-40.42788462 17 -40.42788462 17 -38 17 C-37.67 16.01 -37.34 15.02 -37 14 C-35.03277992 12.61876037 -33.03131672 11.28511874 -31 10 C-30.34 9.34 -29.68 8.68 -29 8 C-27.01178687 7.60235737 -25.01055661 7.26224651 -23 7 C-23 6.34 -23 5.68 -23 5 C-22.26394531 4.73445313 -21.52789062 4.46890625 -20.76953125 4.1953125 C-19.79371094 3.84210937 -18.81789063 3.48890625 -17.8125 3.125 C-16.36810547 2.60292969 -16.36810547 2.60292969 -14.89453125 2.0703125 C-13.03376633 1.38225638 -11.19057651 0.64346823 -9.375 -0.15625 C-6.0433653 -1.33985706 -3.41333485 -0.66928134 0 0 Z " fill="#4D6CE5" transform="translate(89,18)"/>
<path d="M0 0 C1.0209375 0.4640625 1.0209375 0.4640625 2.0625 0.9375 C0.44655168 2.97869788 -1.2231382 4.97822937 -2.9375 6.9375 C-3.5975 6.9375 -4.2575 6.9375 -4.9375 6.9375 C-5.164375 7.5975 -5.39125 8.2575 -5.625 8.9375 C-6.72789944 11.458413 -7.89195706 13.51646364 -9.375 15.8125 C-13.87171252 22.91466065 -15.67217662 29.70545494 -16.9375 37.9375 C-18.5875 37.6075 -20.2375 37.2775 -21.9375 36.9375 C-22.68676071 33.27444766 -23.1755014 30.51394848 -21.9375 26.9375 C-20.9475 26.9375 -19.9575 26.9375 -18.9375 26.9375 C-18.751875 25.679375 -18.56625 24.42125 -18.375 23.125 C-16.67609179 15.52776962 -9.04611137 -0.19247045 0 0 Z " fill="#4F6CE5" transform="translate(74.9375,62.0625)"/>
<path d="M0 0 C1.32 0.33 2.64 0.66 4 1 C4 1.66 4 2.32 4 3 C2.1015625 4.4375 2.1015625 4.4375 -0.375 6 C-2.84952162 7.57112484 -4.92383041 8.92383041 -7 11 C-10.04582043 12.38868762 -13.21843549 13.45243957 -16.375 14.5625 C-17.27444336 14.87968994 -18.17388672 15.19687988 -19.10058594 15.52368164 C-25.79923435 17.79364553 -31.88464993 19.10123466 -39 19 C-38 16 -38 16 -36.28515625 15.12109375 C-30.58050735 13.36658838 -24.87696828 12.04288581 -19 11 C-18.67 10.01 -18.34 9.02 -18 8 C-18 8.66 -18 9.32 -18 10 C-17.11957031 9.50628906 -16.23914063 9.01257813 -15.33203125 8.50390625 C-14.15904803 7.85641951 -12.98586003 7.20930364 -11.8125 6.5625 C-10.66394531 5.92441406 -9.51539063 5.28632813 -8.33203125 4.62890625 C-5.43449743 3.21240965 -3.16805872 2.42360107 0 2 C0 1.34 0 0.68 0 0 Z " fill="#4D6BE3" transform="translate(155,171)"/>
<path d="M0 0 C0.99 0 1.98 0 3 0 C3.99903007 3.62945501 4.37789513 5.3187943 2.515625 8.67578125 C-4.79026252 17.17832276 -12.72410725 26.27823278 -24 29 C-27 28.6875 -27 28.6875 -29 28 C-28.34 27.67 -27.68 27.34 -27 27 C-26.67 26.01 -26.34 25.02 -26 24 C-25.34 24.33 -24.68 24.66 -24 25 C-23.67 24.34 -23.34 23.68 -23 23 C-22.12730469 22.74863281 -21.25460938 22.49726563 -20.35546875 22.23828125 C-16.08781188 20.66337179 -13.55719262 18.29684044 -10.3125 15.1875 C-9.74466797 14.66607422 -9.17683594 14.14464844 -8.59179688 13.60742188 C-4.38945573 9.66126096 -1.08029598 5.83359827 0 0 Z " fill="#4D6CE4" transform="translate(147,122)"/>
<path d="M0 0 C1.59811523 0.02030273 1.59811523 0.02030273 3.22851562 0.04101562 C5.84037588 0.07615276 8.45116634 0.12534816 11.0625 0.1875 C11.5575 1.1775 11.5575 1.1775 12.0625 2.1875 C7.1024662 3.13038183 2.21735426 3.48998211 -2.8125 3.75 C-3.988125 3.81477539 -3.988125 3.81477539 -5.1875 3.88085938 C-7.10400649 3.98603351 -9.02073333 4.08717925 -10.9375 4.1875 C-10.9375 5.1775 -10.9375 6.1675 -10.9375 7.1875 C-18.5625 9.1875 -18.5625 9.1875 -21.9375 9.1875 C-22.8965625 9.6825 -22.8965625 9.6825 -23.875 10.1875 C-25.9375 11.1875 -25.9375 11.1875 -29.9375 11.1875 C-29.8125 9.375 -29.8125 9.375 -28.9375 7.1875 C-25.66542188 5.22425313 -22.61044626 4.07791121 -18.9375 3.1875 C-17.98617187 2.68605469 -17.03484375 2.18460938 -16.0546875 1.66796875 C-10.87527986 -0.58067507 -5.54533809 -0.13424468 0 0 Z " fill="#4F6BE6" transform="translate(105.9375,50.8125)"/>
<path d="M0 0 C1.32 0 2.64 0 4 0 C4 0.66 4 1.32 4 2 C4.99 2.33 5.98 2.66 7 3 C5.89879502 9.37539727 0.78186176 14.44560996 -3.9375 18.5625 C-4.618125 19.036875 -5.29875 19.51125 -6 20 C-4.79618552 17.50638429 -3.54571278 15.31856917 -2 13 C-1.34 13 -0.68 13 0 13 C1.49821059 9.62902617 2 7.79557881 2 4 C1.57589844 4.49628906 1.15179688 4.99257812 0.71484375 5.50390625 C-7.1580854 14.62266155 -14.73949905 23.0299028 -26 27.75 C-26.68578125 28.05292969 -27.3715625 28.35585937 -28.078125 28.66796875 C-32.04146394 30.36978414 -35.67968511 31.48696261 -40 32 C-40.33 31.34 -40.66 30.68 -41 30 C-40.22398438 29.81566406 -39.44796875 29.63132813 -38.6484375 29.44140625 C-23.94276957 25.49298706 -10.02368631 16.84398742 -2.1875 3.4375 C-1.85105469 2.77621094 -1.51460937 2.11492187 -1.16796875 1.43359375 C-0.78253906 0.96050781 -0.39710938 0.48742187 0 0 Z " fill="#455DB0" transform="translate(162,133)"/>
<path d="M0 0 C8.25714819 2.89956897 16.20324266 9.65329359 21 17 C21.875 19.9375 21.875 19.9375 22 22 C22.66 22 23.32 22 24 22 C23.67 23.32 23.34 24.64 23 26 C22.34 26 21.68 26 21 26 C19.62340232 24.27852222 18.32227237 22.49622345 17.0625 20.6875 C14.37763585 16.79127279 14.37763585 16.79127279 11.24609375 13.26953125 C10 12 10 12 10 10 C9.236875 9.731875 8.47375 9.46375 7.6875 9.1875 C5.0427406 8.01888538 3.99065202 6.99065202 2 5 C-0.59915538 3.80972016 -0.59915538 3.80972016 -3 3 C-2.01 2.01 -1.02 1.02 0 0 Z " fill="#4D6CE5" transform="translate(127,55)"/>
<path d="M0 0 C3 0.125 3 0.125 4 1.125 C4.24850252 2.45606376 4.4431282 3.79729624 4.61328125 5.140625 C4.72478516 5.97384277 4.83628906 6.80706055 4.95117188 7.66552734 C5.07041016 8.55965332 5.18964844 9.4537793 5.3125 10.375 C6.64395608 19.77715402 8.31335691 28.79046349 12.625 37.3515625 C14 40.125 14 40.125 14 42.125 C13.34 42.125 12.68 42.125 12 42.125 C8.88436342 37.07620725 6.86205783 32.34175491 5.3125 26.625 C5.09827393 25.84979004 4.88404785 25.07458008 4.66333008 24.27587891 C2.74061518 16.90534647 2.12339437 9.73058051 2 2.125 C1.01 2.125 0.02 2.125 -1 2.125 C-1 8.725 -1 15.325 -1 22.125 C-4.30381689 15.51736622 -4.47523212 8.42121081 -4 1.125 C-3 0.125 -3 0.125 0 0 Z " fill="#4559B3" transform="translate(20,100.875)"/>
<path d="M0 0 C2.0464224 2.5545634 4.0882264 5.11203611 6.11328125 7.68359375 C9.53320889 11.96609639 12.82324201 16.06425052 17.0625 19.5625 C18.5165625 20.7690625 18.5165625 20.7690625 20 22 C20 22.66 20 23.32 20 24 C20.58910156 24.28359375 21.17820312 24.5671875 21.78515625 24.859375 C23.77884221 25.88610569 25.57563111 27.00598961 27.4375 28.25 C32.98605111 31.7770676 39.00222515 34.33940171 45 37 C45 37.66 45 38.32 45 39 C40.44007075 38.39084915 36.74413783 36.54032014 32.75 34.375 C32.08830811 34.01889648 31.42661621 33.66279297 30.74487305 33.29589844 C23.75612446 29.44769047 17.41191982 24.90391253 12 19 C12 18.34 12 17.68 12 17 C11.42765625 16.78085938 10.8553125 16.56171875 10.265625 16.3359375 C7.27717273 14.57378116 5.77876678 12.42770374 3.75 9.625 C2.69039062 8.19027344 2.69039062 8.19027344 1.609375 6.7265625 C0 4 0 4 0 0 Z " fill="#4A5FB5" transform="translate(34,143)"/>
<path d="M0 0 C17.67271268 -0.97380254 34.71703777 4.58689308 48.92578125 14.97265625 C51.19829092 17.19380977 52.05675666 18.99308616 53 22 C50 21 50 21 47.5625 18 C45.34737467 14.91937137 45.34737467 14.91937137 42.6875 14.125 C41.8521875 14.063125 41.8521875 14.063125 41 14 C41 13.34 41 12.68 41 12 C39.02 11.67 37.04 11.34 35 11 C35 10.34 35 9.68 35 9 C33.91460937 8.73445313 32.82921875 8.46890625 31.7109375 8.1953125 C30.26559353 7.83866918 28.82028278 7.4818912 27.375 7.125 C26.66214844 6.95097656 25.94929688 6.77695312 25.21484375 6.59765625 C22.04744438 5.81307109 18.98658209 4.99525629 15.90625 3.90625 C12.598984 2.874952 9.57865982 2.58644856 6.125 2.375 C4.97257812 2.30023438 3.82015625 2.22546875 2.6328125 2.1484375 C1.32957031 2.07496094 1.32957031 2.07496094 0 2 C0 1.34 0 0.68 0 0 Z " fill="#3E5EAE" transform="translate(103,31)"/>
<path d="M0 0 C12.21891551 4.29723849 25.05409877 17.66721389 31 29 C30.71484375 31.83203125 30.71484375 31.83203125 30 34 C27.525 34.495 27.525 34.495 25 35 C24.34 33.68 23.68 32.36 23 31 C24.32 31.33 25.64 31.66 27 32 C26.70068321 27.21093135 24.27982829 24.4563263 21.375 20.8671875 C20 19 20 19 19 16 C18.01 15.67 17.02 15.34 16 15 C16 14.34 16 13.68 16 13 C15.443125 12.7525 14.88625 12.505 14.3125 12.25 C11.6006765 10.78414946 9.3847366 8.94544301 7 7 C6.34 6.67 5.68 6.34 5 6 C4.67 6.66 4.34 7.32 4 8 C2.66666667 5.33333333 1.33333333 2.66666667 0 0 Z " fill="#4257BC" transform="translate(153,26)"/>
<path d="M0 0 C0.99 0 1.98 0 3 0 C0.93187831 6.84071021 -1.82891642 11.0811644 -7 16 C-7.66 16.721875 -8.32 17.44375 -9 18.1875 C-11.21268355 20.19274447 -13.18510525 21.06170175 -16 22 C-15.25996058 17.0047339 -11.73132963 13.22251195 -8 10 C-7.34 10 -6.68 10 -6 10 C-5.9071875 9.195625 -5.9071875 9.195625 -5.8125 8.375 C-4.58820104 4.79627995 -2.61549727 2.74004476 0 0 Z " fill="#4E6BE5" transform="translate(180,145)"/>
<path d="M0 0 C-2.17485168 2.17485168 -3.51678894 2.66538893 -6.375 3.6875 C-16.97333039 7.85983122 -25.29013539 13.70391233 -33.40625 21.546875 C-35.52692641 23.55257498 -37.62230312 25.3176673 -40 27 C-39.52219508 22.69975573 -37.06572482 20.86578624 -34 18 C-32.76834453 16.7524522 -31.53925558 15.50236634 -30.3125 14.25 C-27.24733475 11.12366738 -27.24733475 11.12366738 -25 10 C-24.67 9.34 -24.34 8.68 -24 8 C-22.67651218 7.62950186 -21.34079046 7.30194344 -20 7 C-18.64962416 6.40702126 -17.31506827 5.77706999 -15.99609375 5.1171875 C-15.25552734 4.75496094 -14.51496094 4.39273437 -13.75195312 4.01953125 C-12.20273421 3.25341962 -10.65586385 2.48254121 -9.11132812 1.70703125 C-8.37205078 1.34738281 -7.63277344 0.98773437 -6.87109375 0.6171875 C-5.86453735 0.11614502 -5.86453735 0.11614502 -4.83764648 -0.39501953 C-3 -1 -3 -1 0 0 Z " fill="#455AAA" transform="translate(82,23)"/>
<path d="M0 0 C1.98 0.66 3.96 1.32 6 2 C4.42167196 12.85344097 -4.31820664 20.87463433 -12 28 C-12.66 27.34 -13.32 26.68 -14 26 C-13.113125 25.319375 -12.22625 24.63875 -11.3125 23.9375 C-8.8401779 21.90353289 -7.05055402 19.83189575 -5.25 17.1875 C-4.5075 16.135625 -3.765 15.08375 -3 14 C-2.34 14 -1.68 14 -1 14 C-0.731875 13.29875 -0.46375 12.5975 -0.1875 11.875 C1.0681449 8.8350176 2.50235123 5.9272226 4 3 C0.45217171 4.67536336 -1.29725499 6.2000027 -3.0625 9.625 C-5 13 -5 13 -7.25 13.9375 C-7.8275 13.958125 -8.405 13.97875 -9 14 C-6.28316728 9.06945173 -3.33342102 4.53715638 0 0 Z " fill="#4355B2" transform="translate(179,142)"/>
<path d="M0 0 C0 0.66 0 1.32 0 2 C-1.19238281 2.34933594 -2.38476562 2.69867188 -3.61328125 3.05859375 C-5.17969593 3.51820045 -6.74610171 3.97783745 -8.3125 4.4375 C-9.49102539 4.78264648 -9.49102539 4.78264648 -10.69335938 5.13476562 C-11.45068359 5.35712891 -12.20800781 5.57949219 -12.98828125 5.80859375 C-14.03302612 6.11494751 -14.03302612 6.11494751 -15.09887695 6.42749023 C-16.74173766 6.92222612 -18.37230856 7.45743619 -20 8 C-22.85159273 7.96232652 -25.65658712 7.86189444 -28.5 7.6875 C-29.30429443 7.63972412 -30.10858887 7.59194824 -30.93725586 7.54272461 C-43.65560531 6.70708223 -43.65560531 6.70708223 -49 5 C-49.33 4.34 -49.66 3.68 -50 3 C-48.14375 3.2475 -48.14375 3.2475 -46.25 3.5 C-30.03825102 5.09346251 -15.39109211 0 0 0 Z " fill="#4559AD" transform="translate(136,180)"/>
<path d="M0 0 C0.66 0.99 1.32 1.98 2 3 C1.34 3 0.68 3 0 3 C0 4.32 0 5.64 0 7 C0.66 6.67 1.32 6.34 2 6 C1.23204965 9.95904503 0.35008694 13.88440841 -0.5625 17.8125 C-0.83191406 18.97394531 -1.10132813 20.13539062 -1.37890625 21.33203125 C-1.58386719 22.21246094 -1.78882813 23.09289062 -2 24 C-3.65 23.67 -5.3 23.34 -7 23 C-7.74926071 19.33694766 -8.2380014 16.57644848 -7 13 C-6.01 13 -5.02 13 -4 13 C-3.87882812 12.39671875 -3.75765625 11.7934375 -3.6328125 11.171875 C-3.38144531 9.97304687 -3.38144531 9.97304687 -3.125 8.75 C-2.96257813 7.96109375 -2.80015625 7.1721875 -2.6328125 6.359375 C-2.00849925 4.03168856 -1.15161458 2.10968048 0 0 Z " fill="#4B6AE2" transform="translate(60,76)"/>
<path d="M0 0 C17.69009544 1.97312603 30.39970129 12.19234481 43 24 C42.505 25.485 42.505 25.485 42 27 C41.26910156 26.18208984 41.26910156 26.18208984 40.5234375 25.34765625 C30.44713558 14.63013512 18.56604012 8.28434513 5 3 C3.33317866 2.33372014 1.66645256 1.66720168 0 1 C0 0.67 0 0.34 0 0 Z " fill="#465EB6" transform="translate(126,21)"/>
<path d="M0 0 C0.66 0.33 1.32 0.66 2 1 C-11.87664104 13.09601011 -28.43607215 20.32006772 -47 20 C-47 19.67 -47 19.34 -47 19 C-42.93787551 18.0192711 -38.87523643 17.04069053 -34.8125 16.0625 C-33.08676758 15.64581055 -33.08676758 15.64581055 -31.32617188 15.22070312 C-30.21435547 14.95322266 -29.10253906 14.68574219 -27.95703125 14.41015625 C-26.93585205 14.16402588 -25.91467285 13.91789551 -24.86254883 13.66430664 C-22.249486 13.05789777 -19.63341785 12.50976201 -17 12 C-17 11.34 -17 10.68 -17 10 C-16.35933594 9.69707031 -15.71867187 9.39414063 -15.05859375 9.08203125 C-9.63340318 6.4543309 -4.79722458 3.65006218 0 0 Z " fill="#4156AE" transform="translate(154,153)"/>
<path d="M0 0 C0 0.66 0 1.32 0 2 C-0.66008057 2.01458252 -1.32016113 2.02916504 -2.00024414 2.04418945 C-5.02155397 2.11914612 -8.04181595 2.21564806 -11.0625 2.3125 C-12.10083984 2.33505859 -13.13917969 2.35761719 -14.20898438 2.38085938 C-20.21601958 2.59062886 -24.66837769 3.18588727 -30 6 C-30.99 6.495 -30.99 6.495 -32 7 C-32.66 6.67 -33.32 6.34 -34 6 C-33.67 5.01 -33.34 4.02 -33 3 C-30.52685408 2.09044203 -28.23848344 1.40833954 -25.6875 0.8125 C-24.60795044 0.55206909 -24.60795044 0.55206909 -23.5065918 0.28637695 C-15.56510851 -1.50725887 -7.97284864 -1.76695565 0 0 Z " fill="#3C56BF" transform="translate(117,49)"/>
<path d="M0 0 C0.54527344 0.19335938 1.09054688 0.38671875 1.65234375 0.5859375 C2.40644531 0.84632813 3.16054687 1.10671875 3.9375 1.375 C5.03384766 1.75785156 5.03384766 1.75785156 6.15234375 2.1484375 C14.43021131 4.6238492 21.91331618 5.2605508 30.5625 5.125 C31.66658203 5.11597656 32.77066406 5.10695312 33.90820312 5.09765625 C36.6057017 5.07430128 39.30273077 5.04155054 42 5 C42 5.66 42 6.32 42 7 C28.07376513 10.4331076 12.78053533 8.09980095 0 2 C0 1.34 0 0.68 0 0 Z " fill="#3F59B9" transform="translate(79,159)"/>
<path d="M0 0 C2.86724686 0.57344937 3.8614515 0.8614515 6 3 C5.64586931 7.65735507 2.32641111 11.77224985 -0.02929688 15.69140625 C-2.1972431 19.37252304 -3.80231228 22.89901692 -5 27 C-5.66 27 -6.32 27 -7 27 C-6.3067395 20.06739505 -3.3439424 14.70036562 0.75 9.1875 C3.2883416 6.24178644 3.2883416 6.24178644 3 3 C-0.34998521 4.11666174 -0.79340222 4.74694925 -2.6875 7.5625 C-3.12449219 8.20316406 -3.56148437 8.84382813 -4.01171875 9.50390625 C-4.33785156 9.99761719 -4.66398437 10.49132812 -5 11 C-5.33 10.01 -5.66 9.02 -6 8 C-4.78515625 5.95703125 -4.78515625 5.95703125 -3.0625 3.8125 C-2.49660156 3.09707031 -1.93070313 2.38164063 -1.34765625 1.64453125 C-0.90292969 1.10183594 -0.45820312 0.55914062 0 0 Z " fill="#4458AE" transform="translate(51,57)"/>
<path d="M0 0 C1.02480469 0.00644531 2.04960938 0.01289062 3.10546875 0.01953125 C4.16894531 0.03628906 5.23242188 0.05304687 6.328125 0.0703125 C7.94654297 0.08384766 7.94654297 0.08384766 9.59765625 0.09765625 C12.25803778 0.12119945 14.91796836 0.15408451 17.578125 0.1953125 C17.908125 0.8553125 18.238125 1.5153125 18.578125 2.1953125 C13.54317453 3.14240125 8.55754481 3.57055191 3.453125 3.8828125 C2.25623047 3.97272461 2.25623047 3.97272461 1.03515625 4.06445312 C-6.15134532 4.50236182 -6.15134532 4.50236182 -9.421875 2.1953125 C-6.16433576 0.25821612 -3.76577572 -0.04184195 0 0 Z " fill="#4E6EE8" transform="translate(99.421875,50.8046875)"/>
<path d="M0 0 C0.66 0.33 1.32 0.66 2 1 C4.09821215 0.60061233 4.09821215 0.60061233 6 0 C5.525625 0.598125 5.05125 1.19625 4.5625 1.8125 C2.83534256 4.00382924 2.83534256 4.00382924 2 7 C-0.28034235 8.83061617 -2.5419668 10.52320984 -4.9375 12.1875 C-5.58396484 12.65091797 -6.23042969 13.11433594 -6.89648438 13.59179688 C-11.73020987 17 -11.73020987 17 -14 17 C-12.65459949 12.96379847 -10.58054491 12.14832694 -7 10 C-6.01 9.67 -5.02 9.34 -4 9 C-4.33 7.35 -4.66 5.7 -5 4 C-3.35 2.68 -1.7 1.36 0 0 Z " fill="#4865E4" transform="translate(163,165)"/>
<path d="M0 0 C1.98 0.66 3.96 1.32 6 2 C6 2.66 6 3.32 6 4 C6.721875 4.268125 7.44375 4.53625 8.1875 4.8125 C10.97590126 5.98982498 13.44095724 7.39145884 16 9 C15.67 9.99 15.34 10.98 15 12 C10.78627213 11.447752 8.2311433 10.05019656 4.8125 7.5625 C3.95269531 6.94503906 3.09289063 6.32757813 2.20703125 5.69140625 C0 4 0 4 -2 2 C-1.34 1.34 -0.68 0.68 0 0 Z " fill="#4B6CE2" transform="translate(60,150)"/>
<path d="M0 0 C0.66 0.66 1.32 1.32 2 2 C-8.79106606 6.77480799 -19.42572615 9.74613224 -31 12 C-31.33 11.34 -31.66 10.68 -32 10 C-32.66 9.67 -33.32 9.34 -34 9 C-33.34 9 -32.68 9 -32 9 C-31.67 8.34 -31.34 7.68 -31 7 C-31 7.66 -31 8.32 -31 9 C-20.36042816 7.08138869 -9.65964924 5.08997911 0 0 Z " fill="#3D54B9" transform="translate(147,181)"/>
<path d="M0 0 C0.99 0 1.98 0 3 0 C4.44207941 2.88415883 4.09394887 5.41721528 4.0625 8.625 C4.05347656 9.81351563 4.04445313 11.00203125 4.03515625 12.2265625 C4.02355469 13.14179687 4.01195312 14.05703125 4 15 C3.01 15.495 3.01 15.495 2 16 C1.34444881 18.52733235 1.34444881 18.52733235 1 21 C0.34 20.67 -0.32 20.34 -1 20 C-0.67 13.4 -0.34 6.8 0 0 Z " fill="#4761DB" transform="translate(19,103)"/>
<path d="M0 0 C0.33 0.66 0.66 1.32 1 2 C2.65 1.67 4.3 1.34 6 1 C5.071875 1.804375 5.071875 1.804375 4.125 2.625 C1.79456747 4.91343409 1.79456747 4.91343409 0.9375 8.1875 C0.628125 9.115625 0.31875 10.04375 0 11 C-0.99 11.33 -1.98 11.66 -3 12 C-4.68538601 13.99665314 -4.68538601 13.99665314 -6 16 C-6.66 15.67 -7.32 15.34 -8 15 C-6.35 13.02 -4.7 11.04 -3 9 C-4.32 9.33 -5.64 9.66 -7 10 C-4.93992341 6.39486597 -2.6486859 3.19668988 0 0 Z " fill="#4B69E2" transform="translate(41,42)"/>
<path d="M0 0 C0.66 0.33 1.32 0.66 2 1 C1.52129086 3.08343851 1.04201531 5.16674689 0.5625 7.25 C0.29566406 8.41015625 0.02882813 9.5703125 -0.24609375 10.765625 C-0.80968 13.18349761 -1.38669951 15.59443304 -2 18 C-5.28696233 18.79953138 -6.71023192 19.09658936 -10 18 C-10 15.69 -10 13.38 -10 11 C-9.67 11 -9.34 11 -9 11 C-8.67 12.65 -8.34 14.3 -8 16 C-6.68 16.33 -5.36 16.66 -4 17 C-3.96261719 16.27554688 -3.92523438 15.55109375 -3.88671875 14.8046875 C-3.50139002 9.13808848 -3.015464 4.85096382 0 0 Z " fill="#4B5EB2" transform="translate(62,83)"/>
<path d="M0 0 C3.25 1.125 3.25 1.125 6.25 3.125 C3.37242265 4.27603094 2.17805526 4.10247185 -0.84375 3.15625 C-5.14762825 1.8591908 -9.22513381 1.90058139 -13.6875 2 C-14.46673828 2.00902344 -15.24597656 2.01804688 -16.04882812 2.02734375 C-17.94935447 2.05066309 -19.84972008 2.08652414 -21.75 2.125 C-21.75 1.465 -21.75 0.805 -21.75 0.125 C-16.20790644 -2.64604678 -5.94069378 -1.41286163 0 0 Z " fill="#475EAD" transform="translate(116.75,54.875)"/>
<path d="M0 0 C3.51750941 2.05872184 6.86638798 4.26354365 10.1875 6.625 C13.48499787 8.99446676 13.48499787 8.99446676 17 11 C17 11.66 17 12.32 17 13 C12.69235185 11.43358249 8.93828536 9.31663844 5 7 C5 6.34 5 5.68 5 5 C2.14221967 4.31506627 2.14221967 4.31506627 -1 4 C-1.99 4.66 -2.98 5.32 -4 6 C-4 5.01 -4 4.02 -4 3 C-2 1.3125 -2 1.3125 0 0 Z " fill="#4054B8" transform="translate(61,147)"/>
<path d="M0 0 C0.66 0.33 1.32 0.66 2 1 C1.525625 1.7425 1.05125 2.485 0.5625 3.25 C-0.77869327 5.61050015 -1.512312 7.36648477 -2 10 C-2.66 10 -3.32 10 -4 10 C-4 11.65 -4 13.3 -4 15 C-4.99 15.495 -4.99 15.495 -6 16 C-7.05352843 18.30965848 -8.05719096 20.6429774 -9 23 C-9.66 23 -10.32 23 -11 23 C-8.54541151 14.73821436 -5.36708111 6.81806524 0 0 Z " fill="#3A4FC3" transform="translate(31,53)"/>
<path d="M0 0 C0.5625 1.9375 0.5625 1.9375 1 4 C0.67 4.33 0.34 4.66 0 5 C0.66 5.66 1.32 6.32 2 7 C0.68 7 -0.64 7 -2 7 C-2 6.01 -2 5.02 -2 4 C-2.49371094 4.16113281 -2.98742187 4.32226562 -3.49609375 4.48828125 C-7.01088133 5.20659197 -10.49104574 5.18428537 -14.0625 5.1875 C-14.78244141 5.19974609 -15.50238281 5.21199219 -16.24414062 5.22460938 C-20.0426247 5.23519011 -21.76366518 5.15755655 -25 3 C-23.94941406 3.03480469 -22.89882812 3.06960937 -21.81640625 3.10546875 C-13.90060049 3.28640145 -7.40687268 3.174374 0 0 Z " fill="#415EC8" transform="translate(119,145)"/>
<path d="M0 0 C5.36463034 4.26980782 10.64344953 8.92729355 14 15 C13.73680112 18.01582054 13.17538827 18.82461173 11 21 C8.9375 20.8125 8.9375 20.8125 7 20 C6.67 19.01 6.34 18.02 6 17 C7.98 17.33 9.96 17.66 12 18 C9.98139568 13.53163315 7.68779492 10.2937879 4.3125 6.75 C0 2.21052632 0 2.21052632 0 0 Z " fill="#455AA5" transform="translate(154,49)"/>
<path d="M0 0 C4.60139641 1.48868707 7.50227094 3.74629855 11 7 C11 7.66 11 8.32 11 9 C4.85412262 8.7589852 4.85412262 8.7589852 2.421875 6.59765625 C1.21155069 5.11953029 0.09779097 3.56352047 -1 2 C-0.67 1.34 -0.34 0.68 0 0 Z " fill="#4F6EE5" transform="translate(158,32)"/>
<path d="M0 0 C7.36124003 0 12.7446887 4.08458445 18 9 C19.32421875 11.765625 19.32421875 11.765625 20 14 C17 13 17 13 14.5625 10 C12.34737467 6.91937137 12.34737467 6.91937137 9.6875 6.125 C9.130625 6.08375 8.57375 6.0425 8 6 C8 5.34 8 4.68 8 4 C5.03 3.505 5.03 3.505 2 3 C2 2.34 2 1.68 2 1 C1.34 0.67 0.68 0.34 0 0 Z " fill="#4056C6" transform="translate(136,39)"/>
<path d="M0 0 C0.77859375 0.24878906 1.5571875 0.49757812 2.359375 0.75390625 C3.14828125 1.02074219 3.9371875 1.28757813 4.75 1.5625 C5.54921875 1.83191406 6.3484375 2.10132813 7.171875 2.37890625 C7.77515625 2.58386719 8.3784375 2.78882813 9 3 C9 3.66 9 4.32 9 5 C7.02006459 4.69240822 5.04106401 4.3787932 3.0625 4.0625 C1.96035156 3.88847656 0.85820313 3.71445312 -0.27734375 3.53515625 C-3 3 -3 3 -4 2 C-6.34987262 1.76472227 -8.70556039 1.58613583 -11.0625 1.4375 C-12.35285156 1.35371094 -13.64320312 1.26992188 -14.97265625 1.18359375 C-16.47119141 1.09271484 -16.47119141 1.09271484 -18 1 C-18 0.67 -18 0.34 -18 0 C-15.75067773 -0.1954625 -13.50049858 -0.38108226 -11.25 -0.5625 C-9.99703125 -0.66691406 -8.7440625 -0.77132812 -7.453125 -0.87890625 C-4.52651196 -0.98153635 -2.71079368 -0.91891311 0 0 Z " fill="#3F5DC0" transform="translate(119,37)"/>
<path d="M0 0 C-3.46771219 2.93693991 -7.32385838 4.57954335 -11.5 6.25 C-12.16386719 6.53101563 -12.82773438 6.81203125 -13.51171875 7.1015625 C-16.32136105 8.23439233 -18.42488315 9.07643958 -21.46875 8.671875 C-21.9740625 8.45015625 -22.479375 8.2284375 -23 8 C-23 7.67 -23 7.34 -23 7 C-22.11957031 6.74605469 -21.23914063 6.49210938 -20.33203125 6.23046875 C-19.17058594 5.88628906 -18.00914063 5.54210937 -16.8125 5.1875 C-15.66394531 4.85105469 -14.51539063 4.51460937 -13.33203125 4.16796875 C-1.15824631 -0.09927826 -1.15824631 -0.09927826 0 0 Z " fill="#3E57B8" transform="translate(144,156)"/>
<path d="M0 0 C0.33 0 0.66 0 1 0 C1 6.6 1 13.2 1 20 C-0.89780302 16.20439396 -1.39968474 14.12135598 -1.75 10 C-1.89695312 8.453125 -1.89695312 8.453125 -2.046875 6.875 C-1.99896675 3.93662711 -1.5381113 2.46097808 0 0 Z " fill="#3D58BD" transform="translate(18,103)"/>
<path d="M0 0 C0.33 0.66 0.66 1.32 1 2 C-6.90132827 11.38140417 -6.90132827 11.38140417 -11 14 C-11.99 13.67 -12.98 13.34 -14 13 C-13.15695313 12.22914063 -12.31390625 11.45828125 -11.4453125 10.6640625 C-10.33851968 9.65106568 -9.23175006 8.63804353 -8.125 7.625 C-7.56941406 7.11710938 -7.01382813 6.60921875 -6.44140625 6.0859375 C-4.25988219 4.0883974 -2.09183907 2.09183907 0 0 Z " fill="#465BB5" transform="translate(169,156)"/>
<path d="M0 0 C3 0.125 3 0.125 4 1.125 C4.23481693 3.30792774 4.41363323 5.49703174 4.5625 7.6875 C4.64628906 8.88503906 4.73007812 10.08257812 4.81640625 11.31640625 C4.87699219 12.24324219 4.93757813 13.17007813 5 14.125 C4.34 14.125 3.68 14.125 3 14.125 C2.67 10.165 2.34 6.205 2 2.125 C-2.20180184 2.6989739 -2.20180184 2.6989739 -4 6.125 C-4.042721 4.45888095 -4.04063832 2.79117115 -4 1.125 C-3 0.125 -3 0.125 0 0 Z " fill="#384B96" transform="translate(20,100.875)"/>
<path d="M0 0 C2.97 0.495 2.97 0.495 6 1 C6.33 2.32 6.66 3.64 7 5 C4.36 5.66 1.72 6.32 -1 7 C-0.67 4.69 -0.34 2.38 0 0 Z " fill="#4F67C7" transform="translate(88,53)"/>
<path d="M0 0 C0 0.99 0 1.98 0 3 C-1.79296875 4.75390625 -1.79296875 4.75390625 -4.1875 6.5625 C-4.96480469 7.16191406 -5.74210938 7.76132813 -6.54296875 8.37890625 C-8.96728396 9.9784147 -11.27182493 11.02599789 -14 12 C-12.64110005 7.92330016 -10.60857078 7.27206309 -7 5 C-4.65041697 3.35529188 -2.327585 1.6758612 0 0 Z " fill="#4354B5" transform="translate(163,170)"/>
<path d="M0 0 C0.66 0 1.32 0 2 0 C1.01 5.94 0.02 11.88 -1 18 C-1.66 17.67 -2.32 17.34 -3 17 C-3.40214229 10.83381819 -1.96818336 5.82254243 0 0 Z " fill="#4458B7" transform="translate(20,76)"/>
<path d="M0 0 C0.66 0.33 1.32 0.66 2 1 C1.67386719 1.50789063 1.34773438 2.01578125 1.01171875 2.5390625 C-1.56588877 6.59936461 -3.93284834 10.64810177 -6 15 C-6.99 14.67 -7.98 14.34 -9 14 C-8.0653305 12.41499412 -7.12713737 10.83206584 -6.1875 9.25 C-5.66542969 8.36828125 -5.14335938 7.4865625 -4.60546875 6.578125 C-3.17453304 4.28027203 -1.66105577 2.13493054 0 0 Z " fill="#485AB4" transform="translate(38,53)"/>
<path d="M0 0 C0 0.33 0 0.66 0 1 C-8.09910608 2.66135509 -15.86202273 2.03339394 -24 1 C-24 0.67 -24 0.34 -24 0 C-7.1070615 -1.33257403 -7.1070615 -1.33257403 0 0 Z " fill="#415CA4" transform="translate(117,154)"/>
<path d="M0 0 C2.97 0.33 5.94 0.66 9 1 C9 1.66 9 2.32 9 3 C8.01 3 7.02 3 6 3 C6 3.66 6 4.32 6 5 C6.99 5.33 7.98 5.66 9 6 C6 7 6 7 3 6 C3 4.68 3 3.36 3 2 C2.01 2 1.02 2 0 2 C0 1.34 0 0.68 0 0 Z " fill="#4B67D2" transform="translate(76,181)"/>
<path d="M0 0 C4.79022833 0.4354753 8.62460714 2.63368078 12 6 C12.703125 8.16796875 12.703125 8.16796875 13 10 C11.32874278 9.00769103 9.66360078 8.00509214 8 7 C6.95392578 6.38511719 6.95392578 6.38511719 5.88671875 5.7578125 C5.16097656 5.32210937 4.43523437 4.88640625 3.6875 4.4375 C2.99011719 4.02371094 2.29273437 3.60992187 1.57421875 3.18359375 C1.05472656 2.79300781 0.53523438 2.40242188 0 2 C0 1.34 0 0.68 0 0 Z " fill="#4B61BA" transform="translate(125,59)"/>
<path d="M0 0 C1.1171875 1.734375 1.1171875 1.734375 2 4 C1.3203125 6.140625 1.3203125 6.140625 0.125 8.25 C-0.26429687 8.95640625 -0.65359375 9.6628125 -1.0546875 10.390625 C-1.36664063 10.92171875 -1.67859375 11.4528125 -2 12 C-2.66 12 -3.32 12 -4 12 C-4.33 12.99 -4.66 13.98 -5 15 C-5.33 13.68 -5.66 12.36 -6 11 C-5.01 10.34 -4.02 9.68 -3 9 C-2.25740651 6.68970915 -1.588562 4.354248 -1 2 C-0.67 1.34 -0.34 0.68 0 0 Z " fill="#506DE9" transform="translate(48,66)"/>
<path d="M0 0 C0.66 0.99 1.32 1.98 2 3 C0.02 3.33 -1.96 3.66 -4 4 C-2.35 4.33 -0.7 4.66 1 5 C0.34 5.66 -0.32 6.32 -1 7 C-2.32 7 -3.64 7 -5 7 C-5.33 6.34 -5.66 5.68 -6 5 C-8.52733235 4.34444881 -8.52733235 4.34444881 -11 4 C-11 3.67 -11 3.34 -11 3 C-5.555 2.505 -5.555 2.505 0 2 C0 1.34 0 0.68 0 0 Z " fill="#4662DC" transform="translate(102,31)"/>
<path d="M0 0 C0 0.99 0 1.98 0 3 C-1.97133986 4.37535339 -3.97681922 5.70211044 -6 7 C-7.70328319 8.6292274 -9.38161281 10.28641357 -11 12 C-11.33 11.01 -11.66 10.02 -12 9 C-10.37680325 7.68527053 -8.751385 6.37328338 -7.125 5.0625 C-6.22007813 4.33160156 -5.31515625 3.60070312 -4.3828125 2.84765625 C-2 1 -2 1 0 0 Z " fill="#3F54BE" transform="translate(58,26)"/>
<path d="M0 0 C0.99 0.33 1.98 0.66 3 1 C-0.63 4.63 -4.26 8.26 -8 12 C-8.33 11.01 -8.66 10.02 -9 9 C-6 6 -3 3 0 0 Z " fill="#475EB0" transform="translate(51,38)"/>
<path d="M0 0 C0.99 0 1.98 0 3 0 C3 3.3 3 6.6 3 10 C2.01 10 1.02 10 0 10 C0 6.7 0 3.4 0 0 Z " fill="#4C6EE5" transform="translate(19,103)"/>
<path d="M0 0 C3.4557601 1.15192003 4.19828537 1.91134634 6 5 C6.1875 7.75 6.1875 7.75 6 10 C3 9 3 9 1.83203125 7.15234375 C1.49558594 6.42144531 1.15914062 5.69054688 0.8125 4.9375 C0.46832031 4.20402344 0.12414062 3.47054687 -0.23046875 2.71484375 C-0.48441406 2.14894531 -0.73835937 1.58304688 -1 1 C-0.67 0.67 -0.34 0.34 0 0 Z " fill="#4F6EE8" transform="translate(169,41)"/>
<path d="M0 0 C0 0.66 0 1.32 0 2 C-4.95 2.33 -9.9 2.66 -15 3 C-15 2.34 -15 1.68 -15 1 C-9.675665 -1.32086397 -5.56157448 -0.91457003 0 0 Z " fill="#4F6BF1" transform="translate(113,34)"/>
<path d="M0 0 C0.33 0 0.66 0 1 0 C1.05406122 1.93719378 1.09282025 3.87481921 1.125 5.8125 C1.14820313 6.89144531 1.17140625 7.97039062 1.1953125 9.08203125 C1 12 1 12 -1 15 C-1.91147322 10.03753471 -1.99130954 5.95654768 -1 1 C-0.67 0.67 -0.34 0.34 0 0 Z " fill="#3751C2" transform="translate(37,86)"/>
<path d="M0 0 C0.33 0.66 0.66 1.32 1 2 C0.01 3.485 0.01 3.485 -1 5 C-1.66158043 7.04584079 -1.66158043 7.04584079 -2.125 9.1875 C-2.41375 10.445625 -2.7025 11.70375 -3 13 C-3.99 12.34 -4.98 11.68 -6 11 C-5.34 8.36 -4.68 5.72 -4 3 C-3.34 3 -2.68 3 -2 3 C-1.34 2.01 -0.68 1.02 0 0 Z " fill="#4D67D6" transform="translate(48,64)"/>
<path d="M0 0 C1.9375 0.6875 1.9375 0.6875 4 2 C4.75 4.625 4.75 4.625 5 7 C2 7 2 7 0 6 C-0.6875 3.5 -0.6875 3.5 -1 1 C-0.67 0.67 -0.34 0.34 0 0 Z " fill="#4D6CE3" transform="translate(176,51)"/>
<path d="M0 0 C4.43458973 1.3937282 6.87378374 3.60582235 10 7 C8.35 6.67 6.7 6.34 5 6 C4.67 6.66 4.34 7.32 4 8 C2.66666667 5.33333333 1.33333333 2.66666667 0 0 Z " fill="#4B5CB8" transform="translate(153,26)"/>
<path d="M0 0 C-1.25 1.5 -1.25 1.5 -3 3 C-4.32 3 -5.64 3 -7 3 C-7 3.66 -7 4.32 -7 5 C-8.98 5.66 -10.96 6.32 -13 7 C-11.78081617 3.3424485 -10.15928702 2.57671131 -6.85546875 0.78515625 C-4.48526307 -0.217815 -2.54101354 -0.30800164 0 0 Z " fill="#3D53BE" transform="translate(73,20)"/>
<path d="M0 0 C0.66 0.66 1.32 1.32 2 2 C0.04350603 2.83764268 -1.91525556 3.66999059 -3.875 4.5 C-5.51082031 5.19609375 -5.51082031 5.19609375 -7.1796875 5.90625 C-10 7 -10 7 -12 7 C-12 6.34 -12 5.68 -12 5 C-8.04 3.35 -4.08 1.7 0 0 Z " fill="#4458AF" transform="translate(147,181)"/>
<path d="M0 0 C4.49014624 1.49671541 8.47848764 3.83368341 12 7 C12 7.66 12 8.32 12 9 C7.09198451 7.51272258 3.59508707 4.55364515 0 1 C0 0.67 0 0.34 0 0 Z " fill="#495BB1" transform="translate(58,153)"/>
<path d="M0 0 C0.33 0.66 0.66 1.32 1 2 C1.66 2 2.32 2 3 2 C4.65 5.3 6.3 8.6 8 12 C2.96964523 9.48482261 2.41749374 7.92132655 0 3 C0 2.01 0 1.02 0 0 Z " fill="#4457BE" transform="translate(27,143)"/>
<path d="M0 0 C1.05960938 0.00676758 1.05960938 0.00676758 2.140625 0.01367188 C3.88545275 0.02546125 5.630237 0.04339676 7.375 0.0625 C7.375 0.3925 7.375 0.7225 7.375 1.0625 C6.28832031 1.15337891 6.28832031 1.15337891 5.1796875 1.24609375 C0.20383467 1.67733433 -4.71180391 2.13297641 -9.625 3.0625 C-9.625 2.4025 -9.625 1.7425 -9.625 1.0625 C-6.55966836 -0.47016582 -3.35745728 -0.04026471 0 0 Z " fill="#3A5ABF" transform="translate(104.625,53.9375)"/>
<path d="M0 0 C0.99 0.33 1.98 0.66 3 1 C3 1.99 3 2.98 3 4 C1.25 5.75 1.25 5.75 -1 7 C-3.25 6.6875 -3.25 6.6875 -5 6 C-3.625 4 -3.625 4 -2 2 C-1.34 2 -0.68 2 0 2 C0 1.34 0 0.68 0 0 Z " fill="#405ACC" transform="translate(57,31)"/>
<path d="M0 0 C0.33 0.66 0.66 1.32 1 2 C1.66 2.33 2.32 2.66 3 3 C0.12469919 3.9584336 -1.29049931 4.06656387 -4.23046875 3.87890625 C-5.03291016 3.83056641 -5.83535156 3.78222656 -6.66210938 3.73242188 C-7.91217773 3.64831055 -7.91217773 3.64831055 -9.1875 3.5625 C-10.4549707 3.48418945 -10.4549707 3.48418945 -11.74804688 3.40429688 C-13.83236299 3.27476311 -15.91623182 3.13806823 -18 3 C-18 2.67 -18 2.34 -18 2 C-12.06 2 -6.12 2 0 2 C0 1.34 0 0.68 0 0 Z " fill="#3F5AC9" transform="translate(116,184)"/>
<path d="M0 0 C3.63 1.65 7.26 3.3 11 5 C11 5.66 11 6.32 11 7 C6.87248551 6.39301257 3.6678852 4.96189209 0 3 C0 2.01 0 1.02 0 0 Z " fill="#4056B8" transform="translate(68,175)"/>
<path d="M0 0 C0.639375 0.2475 1.27875 0.495 1.9375 0.75 C2.2675 1.74 2.5975 2.73 2.9375 3.75 C0.2975 3.75 -2.3425 3.75 -5.0625 3.75 C-4.7325 2.76 -4.4025 1.77 -4.0625 0.75 C-2.0625 -0.25 -2.0625 -0.25 0 0 Z " fill="#4A6ADD" transform="translate(133.0625,38.25)"/>
<path d="M0 0 C0.33 0 0.66 0 1 0 C1.33 1.65 1.66 3.3 2 5 C3.98 4.67 5.96 4.34 8 4 C8 4.99 8 5.98 8 7 C4.71303767 7.79953138 3.28976808 8.09658936 0 7 C0 4.69 0 2.38 0 0 Z " fill="#3D4E8A" transform="translate(52,94)"/>
<path d="M0 0 C0.33 0 0.66 0 1 0 C0.67 2.31 0.34 4.62 0 7 C-2.3431213 6.74438677 -4.67843403 6.40729228 -7 6 C-7.33 5.34 -7.66 4.68 -8 4 C-6.02 4 -4.04 4 -2 4 C-1.34 2.68 -0.68 1.36 0 0 Z " fill="#334A90" transform="translate(24,89)"/>
<path d="M0 0 C3.80625982 1.49531636 5.77940501 3.58980056 8 7 C8.25 9.8125 8.25 9.8125 8 12 C5.81884536 9.81884536 4.54866467 7.66370324 3 5 C2.443125 4.071875 1.88625 3.14375 1.3125 2.1875 C0.879375 1.465625 0.44625 0.74375 0 0 Z " fill="#4762A8" transform="translate(138,69)"/>
<path d="M0 0 C3.63 0.66 7.26 1.32 11 2 C11 2.66 11 3.32 11 4 C6.78121808 4.19622241 3.82989106 3.80230168 0 2 C0 1.34 0 0.68 0 0 Z " fill="#495DB4" transform="translate(83,167)"/>
<path d="M0 0 C3.82352106 1.5577308 6.29205593 3.91595258 9 7 C9 7.99 9 8.98 9 10 C7.86800647 9.0919838 6.74467637 8.17316174 5.625 7.25 C4.99851562 6.73953125 4.37203125 6.2290625 3.7265625 5.703125 C1.91687682 3.91800519 0.99882545 2.32050356 0 0 Z " fill="#4360AF" transform="translate(67,129)"/>
<path d="M0 0 C0.66 0 1.32 0 2 0 C1.67 1.32 1.34 2.64 1 4 C-0.65 4.33 -2.3 4.66 -4 5 C-4.66 3.68 -5.32 2.36 -6 1 C-3.03 1.495 -3.03 1.495 0 2 C0 1.34 0 0.68 0 0 Z " fill="#495BA4" transform="translate(182,56)"/>
<path d="M0 0 C0.66 0.33 1.32 0.66 2 1 C1.525625 1.7425 1.05125 2.485 0.5625 3.25 C-0.77869327 5.61050015 -1.512312 7.36648477 -2 10 C-2.99 9.67 -3.98 9.34 -5 9 C-3.7508258 5.54074837 -2.32472205 2.85306797 0 0 Z " fill="#4458C3" transform="translate(31,53)"/>
<path d="M0 0 C2.97 0.33 5.94 0.66 9 1 C9 1.66 9 2.32 9 3 C9.66 3.33 10.32 3.66 11 4 C6.91281305 4.24042276 3.82320557 3.42258812 0 2 C0 1.34 0 0.68 0 0 Z " fill="#3A54C3" transform="translate(116,32)"/>
<path d="M0 0 C0.66 0 1.32 0 2 0 C2 0.66 2 1.32 2 2 C2.99 2.33 3.98 2.66 5 3 C4.67 4.32 4.34 5.64 4 7 C3.34 7 2.68 7 2 7 C0.5393715 4.35261084 0 3.10551666 0 0 Z " fill="#3B4EBB" transform="translate(164,133)"/>
<path d="M0 0 C0.66 0 1.32 0 2 0 C3.31626692 3.61973402 4 6.09567131 4 10 C3.34 10 2.68 10 2 10 C1.34 6.7 0.68 3.4 0 0 Z " fill="#4259B9" transform="translate(19,124)"/>
<path d="M0 0 C0.928125 1.175625 0.928125 1.175625 1.875 2.375 C3.89858661 4.96837647 3.89858661 4.96837647 6 7 C5.67 7.99 5.34 8.98 5 10 C3.02 7.36 1.04 4.72 -1 2 C-0.67 1.34 -0.34 0.68 0 0 Z " fill="#475EB2" transform="translate(60,127)"/>
<path d="M0 0 C0.66 0 1.32 0 2 0 C6 6.75 6 6.75 6 9 C3 8 3 8 1.3125 5.0625 C0 2 0 2 0 0 Z " fill="#3F55C3" transform="translate(62,120)"/>
<path d="M0 0 C-0.33 0.99 -0.66 1.98 -1 3 C-1.99 3.33 -2.98 3.66 -4 4 C-5.68538601 5.99665314 -5.68538601 5.99665314 -7 8 C-7.66 7.67 -8.32 7.34 -9 7 C-3.34042553 0 -3.34042553 0 0 0 Z " fill="#3F5DD3" transform="translate(42,50)"/>
<path d="M0 0 C1.65 0.33 3.3 0.66 5 1 C4.67 1.99 4.34 2.98 4 4 C2.02 4 0.04 4 -2 4 C-1.34 2.68 -0.68 1.36 0 0 Z " fill="#4E6CF3" transform="translate(71,42)"/>
<path d="M0 0 C0.66 0.66 1.32 1.32 2 2 C0.71086513 2.67154933 -0.58140204 3.33708859 -1.875 4 C-2.59429687 4.37125 -3.31359375 4.7425 -4.0546875 5.125 C-6 6 -6 6 -8 6 C-8 5.34 -8 4.68 -8 4 C-5.36 2.68 -2.72 1.36 0 0 Z " fill="#445FB4" transform="translate(145,175)"/>
<path d="M0 0 C0.33 1.32 0.66 2.64 1 4 C-1.64 4.66 -4.28 5.32 -7 6 C-7.33 5.34 -7.66 4.68 -8 4 C-5.36 2.68 -2.72 1.36 0 0 Z " fill="#4A5DAD" transform="translate(128,141)"/>
<path d="M0 0 C4.3890815 0.51035831 7.33708062 1.52214277 11 4 C8 5 8 5 5.95703125 4.22265625 C5.24933594 3.83980469 4.54164063 3.45695312 3.8125 3.0625 C3.09707031 2.68222656 2.38164062 2.30195313 1.64453125 1.91015625 C1.10183594 1.60980469 0.55914062 1.30945313 0 1 C0 0.67 0 0.34 0 0 Z " fill="#4158BE" transform="translate(142,21)"/>
<path d="M0 0 C0.33 0.66 0.66 1.32 1 2 C3.02463255 2.65213292 3.02463255 2.65213292 5 3 C4.34 3.66 3.68 4.32 3 5 C1.68 3.68 0.36 2.36 -1 1 C-0.67 0.67 -0.34 0.34 0 0 Z M-2 3 C-0.68 3.66 0.64 4.32 2 5 C1.01 5.495 1.01 5.495 0 6 C-0.99 5.34 -1.98 4.68 -3 4 C-2.67 3.67 -2.34 3.34 -2 3 Z " fill="#4B67DB" transform="translate(67,176)"/>
<path d="M0 0 C2.76276177 0.52268466 5.3260876 1.10869587 8 2 C7.67 2.99 7.34 3.98 7 5 C4.69 4.01 2.38 3.02 0 2 C0 1.34 0 0.68 0 0 Z " fill="#3E51C2" transform="translate(75,164)"/>
<path d="M0 0 C0.99 0 1.98 0 3 0 C3.33 1.98 3.66 3.96 4 6 C3.01 6.495 3.01 6.495 2 7 C1.67 6.34 1.34 5.68 1 5 C0.34 4.67 -0.32 4.34 -1 4 C-0.67 2.68 -0.34 1.36 0 0 Z " fill="#4A6ADB" transform="translate(147,122)"/>
<path d="M0 0 C0.99 0.33 1.98 0.66 3 1 C1.515 4.96 1.515 4.96 0 9 C-0.33 9 -0.66 9 -1 9 C-1.125 2.25 -1.125 2.25 0 0 Z " fill="#3D51C4" transform="translate(24,82)"/>
<path d="M0 0 C3.375 0.25 3.375 0.25 7 1 C8.4375 3.0625 8.4375 3.0625 9 5 C6.69 4.34 4.38 3.68 2 3 C2 2.34 2 1.68 2 1 C1.34 0.67 0.68 0.34 0 0 Z " fill="#475EC4" transform="translate(136,39)"/>
<path d="M0 0 C0.66 0 1.32 0 2 0 C2 2.64 2 5.28 2 8 C1.01 8.495 1.01 8.495 0 9 C-1.125 3.375 -1.125 3.375 0 0 Z " fill="#445ACA" transform="translate(53,90)"/>
<path d="M0 0 C0.33 0.99 0.66 1.98 1 3 C-4.75 6 -4.75 6 -7 6 C-6 3 -6 3 -2.9375 1.3125 C-1.968125 0.879375 -0.99875 0.44625 0 0 Z " fill="#3649C0" transform="translate(86,58)"/>
<path d="M0 0 C-2.97 1.65 -5.94 3.3 -9 5 C-6.64389875 0.2877975 -5.23968794 -1.74656265 0 0 Z " fill="#485CB6" transform="translate(69,29)"/>
<path d="M0 0 C0.5775 0.37125 1.155 0.7425 1.75 1.125 C-2.3705746 3.12285435 -5.70194365 3.30335515 -10.25 3.125 C-8.91666667 2.45833333 -7.58333333 1.79166667 -6.25 1.125 C-5.26 0.50625 -5.26 0.50625 -4.25 -0.125 C-2.25 -0.875 -2.25 -0.875 0 0 Z " fill="#3C4DB0" transform="translate(80.25,16.875)"/>
<path d="M0 0 C2.12038635 2.61514317 4.13091744 5.19637616 6 8 C4.125 7.6875 4.125 7.6875 2 7 C0 4 0 4 0 0 Z " fill="#4C5FB1" transform="translate(34,143)"/>
<path d="M0 0 C0.99 0 1.98 0 3 0 C2.34 2.31 1.68 4.62 1 7 C0.01 6.67 -0.98 6.34 -2 6 C-1.34 4.02 -0.68 2.04 0 0 Z " fill="#3B53DA" transform="translate(124,54)"/>
</svg>
